<svg width="296" height="224" viewBox="0 0 296 224" fill="none" xmlns="http://www.w3.org/2000/svg">
<path d="M296 196.848H0V196.998H296V196.848Z" fill="#E6E6E6"/>
<path d="M277.293 202.151H266.181V202.301H277.293V202.151Z" fill="#E6E6E6"/>
<path d="M226.002 206.275H220.857V206.426H226.002V206.275Z" fill="#E6E6E6"/>
<path d="M177.197 204.201H165.736V204.351H177.197V204.201Z" fill="#E6E6E6"/>
<path d="M73.479 204.123H47.9105V204.273H73.479V204.123Z" fill="#E6E6E6"/>
<path d="M42.6418 204.123H38.8944V204.273H42.6418V204.123Z" fill="#E6E6E6"/>
<path d="M167.524 200.563H112.066V200.714H167.524V200.563Z" fill="#E6E6E6"/>
<path d="M140.304 170.032H25.9948C25.0993 170.031 24.241 169.668 23.6083 169.025C22.9757 168.381 22.6204 167.509 22.6204 166.599V3.40305C22.6282 2.49879 22.9869 1.63417 23.6187 0.996996C24.2505 0.35982 25.1044 0.00154904 25.9948 0H140.304C141.201 0 142.06 0.361702 142.694 1.00554C143.328 1.64937 143.684 2.52259 143.684 3.43311V166.599C143.684 167.51 143.328 168.383 142.694 169.027C142.06 169.671 141.201 170.032 140.304 170.032ZM25.9948 0.12025C25.1385 0.121842 24.3179 0.468409 23.713 1.08388C23.1081 1.69935 22.7684 2.53344 22.7684 3.40305V166.599C22.7684 167.469 23.1081 168.303 23.713 168.918C24.3179 169.534 25.1385 169.88 25.9948 169.882H140.304C141.161 169.88 141.982 169.534 142.588 168.919C143.194 168.303 143.535 167.469 143.536 166.599V3.40305C143.535 2.53288 143.194 1.69881 142.588 1.08351C141.982 0.468214 141.161 0.121839 140.304 0.12025H25.9948Z" fill="#E6E6E6"/>
<path d="M268.36 170.032H154.044C153.148 170.031 152.289 169.668 151.656 169.025C151.022 168.381 150.666 167.509 150.664 166.599V3.40305C150.673 2.49824 151.033 1.63363 151.666 0.99662C152.299 0.35961 153.153 0.00153215 154.044 0H268.36C269.249 0.00312918 270.101 0.3621 270.732 0.999106C271.362 1.63611 271.72 2.49983 271.728 3.40305V166.599C271.728 167.508 271.374 168.379 270.742 169.022C270.111 169.666 269.254 170.029 268.36 170.032ZM154.044 0.12025C153.188 0.121839 152.366 0.468214 151.761 1.08351C151.155 1.69881 150.814 2.53288 150.812 3.40305V166.599C150.814 167.469 151.155 168.303 151.761 168.919C152.366 169.534 153.188 169.88 154.044 169.882H268.36C269.216 169.88 270.038 169.534 270.643 168.919C271.249 168.303 271.59 167.469 271.592 166.599V3.40305C271.59 2.53288 271.249 1.69881 270.643 1.08351C270.038 0.468214 269.216 0.121839 268.36 0.12025H154.044Z" fill="#E6E6E6"/>
<path d="M154.488 11.2313H34.7563V97.8888H154.488V11.2313Z" fill="#FAFAFA"/>
<path d="M156.702 11.2313H35.7924V97.8888H156.702V11.2313Z" fill="#F5F5F5"/>
<path d="M153.6 94.3474V14.7666L38.8944 14.7666V94.3474L153.6 94.3474Z" fill="#FAFAFA"/>
<path d="M59.7802 94.3475L77.9782 14.7666H101.836L83.6377 94.3475H59.7802Z" fill="white"/>
<path d="M87.4976 94.3475L105.702 14.7666H116.476L98.272 94.3475H87.4976Z" fill="white"/>
<path d="M153.6 94.3475V14.7666H153.204V94.3475H153.6Z" fill="#FAFAFA"/>
<path d="M32.4298 11.087V45.4301H41.3749C41.3749 45.4301 57.424 34.7821 61.1004 12.8787C61.1895 12.3541 61.1643 11.8161 61.0266 11.3025C60.889 10.7888 60.6422 10.312 60.3036 9.9057C59.965 9.49935 59.5428 9.17328 59.0668 8.95044C58.5908 8.72761 58.0725 8.61341 57.5484 8.61588H34.8629C34.2176 8.61588 33.5988 8.87623 33.1425 9.33966C32.6862 9.80308 32.4298 10.4316 32.4298 11.087Z" fill="#FFBE99"/>
<path d="M32.4298 108.489V48.2018H41.3749C41.3749 48.2018 59.5316 83.7054 61.6332 108.489H32.4298Z" fill="#FFBE99"/>
<path d="M41.1144 45.4301H32.7554C32.2617 45.4301 31.8615 45.8366 31.8615 46.338V47.294C31.8615 47.7954 32.2617 48.2019 32.7554 48.2019H41.1144C41.6081 48.2019 42.0083 47.7954 42.0083 47.294V46.338C42.0083 45.8366 41.6081 45.4301 41.1144 45.4301Z" fill="#F5F5F5"/>
<path d="M159.248 11.087V45.4301H150.285C150.285 45.4301 134.212 34.7821 130.56 12.8787C130.472 12.3543 130.498 11.8166 130.636 11.3034C130.774 10.7902 131.021 10.3139 131.359 9.90782C131.697 9.50172 132.119 9.17567 132.595 8.95249C133.07 8.72932 133.588 8.61443 134.112 8.61586H156.821C157.465 8.61903 158.081 8.88059 158.536 9.3435C158.99 9.80641 159.246 10.4331 159.248 11.087Z" fill="#FFBE99"/>
<path d="M159.248 108.489V48.2018H150.285C150.285 48.2018 132.134 83.7054 130.027 108.489H159.248Z" fill="#FFBE99"/>
<path d="M150.546 48.1958H158.905C159.398 48.1958 159.799 47.7893 159.799 47.2879V46.3319C159.799 45.8305 159.398 45.4241 158.905 45.4241H150.546C150.052 45.4241 149.652 45.8305 149.652 46.3319V47.2879C149.652 47.7893 150.052 48.1958 150.546 48.1958Z" fill="#F5F5F5"/>
<path d="M156.543 119.443H136.87V196.848H156.543V119.443Z" fill="#FAFAFA"/>
<path d="M151.291 196.848H156.543V187.907H145.786L151.291 196.848Z" fill="#F4F8FF"/>
<path d="M62.4264 119.443H42.7543V196.848H62.4264V119.443Z" fill="#E0E0E0"/>
<path d="M156.543 119.443H57.8444V193.769H156.543V119.443Z" fill="#FAFAFA"/>
<path d="M87.4976 106.3C87.4976 113.515 94.3411 119.443 102.712 119.443H110.266C118.631 119.443 125.474 113.527 125.474 106.3H87.4976Z" fill="#EBEBEB"/>
<path d="M83.1168 89.7839H97.3248C97.3248 89.7839 94.8562 96.3976 94.8562 100.294C94.8562 104.19 105.666 119.443 90.2208 119.443C74.7755 119.443 85.5855 104.184 85.5855 100.294C85.5855 96.4036 83.1168 89.7839 83.1168 89.7839Z" fill="#E0E0E0"/>
<path d="M152.47 123.971H61.9172V142.712H152.47V123.971Z" fill="#EBEBEB"/>
<path d="M63.0954 196.848H57.8444V187.907H68.6069L63.0954 196.848Z" fill="#FAFAFA"/>
<path d="M104.411 133.338C104.411 133.897 104.574 134.443 104.88 134.908C105.186 135.373 105.62 135.735 106.129 135.949C106.637 136.163 107.196 136.219 107.736 136.11C108.276 136.001 108.772 135.732 109.161 135.336C109.55 134.941 109.815 134.438 109.922 133.889C110.03 133.341 109.975 132.773 109.764 132.257C109.553 131.74 109.197 131.299 108.739 130.989C108.282 130.678 107.744 130.512 107.193 130.512C106.455 130.512 105.748 130.81 105.226 131.34C104.704 131.87 104.411 132.589 104.411 133.338Z" fill="#FAFAFA"/>
<path d="M152.47 147.239H61.9172V165.98H152.47V147.239Z" fill="#EBEBEB"/>
<path d="M104.411 156.606C104.411 157.165 104.574 157.712 104.88 158.176C105.186 158.641 105.62 159.003 106.129 159.217C106.637 159.431 107.196 159.487 107.736 159.378C108.276 159.269 108.772 159 109.161 158.605C109.55 158.209 109.815 157.706 109.922 157.158C110.03 156.61 109.975 156.041 109.764 155.525C109.553 155.009 109.197 154.567 108.739 154.257C108.282 153.946 107.744 153.781 107.193 153.781C106.455 153.781 105.748 154.078 105.226 154.608C104.704 155.138 104.411 155.857 104.411 156.606Z" fill="#FAFAFA"/>
<path d="M152.47 170.501H61.9172V189.242H152.47V170.501Z" fill="#EBEBEB"/>
<path d="M107.193 182.7C108.73 182.7 109.976 181.435 109.976 179.875C109.976 178.314 108.73 177.049 107.193 177.049C105.657 177.049 104.411 178.314 104.411 179.875C104.411 181.435 105.657 182.7 107.193 182.7Z" fill="#FAFAFA"/>
<path d="M218.969 10.1851H175.025V41.9549H218.969V10.1851Z" fill="#E0E0E0"/>
<path d="M222.557 10.1851H177.523V41.9549H222.557V10.1851Z" fill="#F5F5F5"/>
<path d="M219.685 39.0389V13.1011L180.394 13.1011V39.0389H219.685Z" fill="white"/>
<path d="M212.771 31.4812V20.6528H187.309V31.4812H212.771Z" fill="#F5F5F5"/>
<path d="M254.619 26.07H227.873V54.557H254.619V26.07Z" fill="#E0E0E0"/>
<path d="M258.219 26.07H230.377V54.557H258.219V26.07Z" fill="#F5F5F5"/>
<path d="M255.347 51.641V28.9861H233.248V51.641H255.347Z" fill="white"/>
<path d="M240.163 40.3135C240.163 39.3131 240.553 38.3536 241.249 37.6457C241.945 36.9378 242.889 36.5393 243.874 36.5377H244.715C245.7 36.5393 246.644 36.9378 247.34 37.6457C248.036 38.3536 248.427 39.3131 248.427 40.3135C248.427 41.3133 248.036 42.2722 247.34 42.9791C246.644 43.6861 245.699 44.0833 244.715 44.0833H243.904C243.414 44.0873 242.928 43.9927 242.474 43.805C242.021 43.6173 241.608 43.3403 241.26 42.9898C240.912 42.6394 240.636 42.2224 240.448 41.7631C240.26 41.3038 240.163 40.8111 240.163 40.3135Z" fill="#F5F5F5"/>
<path d="M296 64.243H225.374H212.534V80.8194H199.693V97.3957H186.853V113.972H174.012V130.548H161.172V147.119H148.331V163.695H135.491V180.271H122.651V196.848H135.491H296V64.243Z" fill="#FAFAFA"/>
<path d="M194.519 180.271H121.33V185.244H194.519V180.271Z" fill="#EBEBEB"/>
<path d="M207.36 163.695H134.171V168.667H207.36V163.695Z" fill="#EBEBEB"/>
<path d="M220.2 147.119H147.011V152.091H220.2V147.119Z" fill="#EBEBEB"/>
<path d="M233.041 130.542H159.852V135.515H233.041V130.542Z" fill="#EBEBEB"/>
<path d="M245.881 113.972H172.692V118.944H245.881V113.972Z" fill="#EBEBEB"/>
<path d="M258.722 97.3958H185.533V102.368H258.722V97.3958Z" fill="#EBEBEB"/>
<path d="M271.562 80.8194H198.373V85.7917H271.562V80.8194Z" fill="#EBEBEB"/>
<path d="M284.403 64.243H211.214V69.2153H284.403V64.243Z" fill="#EBEBEB"/>
<path d="M283.159 64.243V80.8194H270.319V97.3957H257.479V113.972H244.638V130.548H231.798V147.119H218.957V163.695H206.117V180.271H193.276V196.848H206.117H296V80.8194V64.243H283.159Z" fill="white"/>
<path d="M148 224C211.393 224 262.783 220.953 262.783 217.194C262.783 213.435 211.393 210.388 148 210.388C84.6072 210.388 33.2172 213.435 33.2172 217.194C33.2172 220.953 84.6072 224 148 224Z" fill="#F5F5F5"/>
<path d="M216.169 64.3333C216.998 67.1531 221.272 72.4321 221.609 76.274C221.947 80.116 214.659 86.2607 214.659 86.2607C214.659 86.2607 209.213 67.7664 212.623 65.6079C216.033 63.4494 216.169 64.3333 216.169 64.3333Z" fill="#263238"/>
<path d="M201.203 84.3127C199.912 85.4069 198.646 86.3268 197.325 87.2708C196.005 88.2148 194.644 89.0745 193.258 89.8802C191.868 90.7157 190.435 91.4763 188.966 92.1589C188.22 92.5016 187.48 92.8383 186.711 93.1329C186.332 93.2893 185.947 93.4396 185.556 93.5719L184.372 93.9927C183.36 94.2802 182.301 94.3579 181.259 94.2212C180.387 94.1177 179.524 93.9489 178.677 93.7162C177.099 93.2725 175.554 92.7139 174.054 92.0447C171.143 90.7538 168.334 89.2361 165.653 87.5053L166.76 85.413C168.158 86.0142 169.59 86.6154 171.011 87.1385C172.432 87.6616 173.864 88.2148 175.297 88.6657C176.694 89.1306 178.117 89.5081 179.56 89.796C180.222 89.9275 180.892 90.0099 181.566 90.0425C182.069 90.0821 182.574 90.0291 183.058 89.8862C184.409 89.3614 185.729 88.7592 187.013 88.0825C187.67 87.7338 188.321 87.379 188.96 86.9942C189.6 86.6094 190.251 86.2367 190.884 85.8398C192.157 85.0402 193.4 84.1924 194.632 83.3206C195.863 82.4488 197.089 81.5169 198.184 80.6331L201.203 84.3127Z" fill="#E58A7B"/>
<path d="M204.329 77.9093C202.861 76.7429 196.787 80.5608 194.946 82.1541L196.289 90.4092C196.289 90.4092 205.021 86.6935 205.542 84.1563C206.093 81.5048 205.424 78.7992 204.329 77.9093Z" fill="#1A8FE3"/>
<path opacity="0.2" d="M204.329 77.9093C202.861 76.7429 196.787 80.5608 194.946 82.1541L196.289 90.4092C196.289 90.4092 205.021 86.6935 205.542 84.1563C206.093 81.5048 205.424 78.7992 204.329 77.9093Z" fill="black"/>
<path d="M224.759 102.891L206.324 106.541C196.799 80.3444 198.871 79.4847 198.871 79.4847C200.21 78.737 201.594 78.0744 203.015 77.5005L203.263 77.4043C204.447 76.9654 204.684 76.8993 206.259 76.4303C208.97 75.775 211.498 75.2278 214.63 74.7769L215.222 74.6927C215.814 74.6206 216.352 74.5605 216.897 74.5063C217.264 74.4643 217.631 74.4402 217.98 74.4162L219.164 74.35C221.189 74.2478 222.639 74.2779 222.639 74.2779C222.077 90.6378 222.989 95.3335 224.759 102.891Z" fill="#1A8FE3"/>
<path opacity="0.2" d="M224.759 102.891L206.324 106.541C196.799 80.3444 198.871 79.4847 198.871 79.4847C200.21 78.737 201.594 78.0744 203.015 77.5005L203.263 77.4043C204.447 76.9654 204.684 76.8993 206.259 76.4303C208.97 75.775 211.498 75.2278 214.63 74.7769L215.222 74.6927C215.814 74.6206 216.352 74.5605 216.897 74.5063C217.264 74.4643 217.631 74.4402 217.98 74.4162L219.164 74.35C221.189 74.2478 222.639 74.2779 222.639 74.2779C222.077 90.6378 222.989 95.3335 224.759 102.891Z" fill="black"/>
<path d="M210.32 66.2152C209.136 68.2053 213.428 69.1252 215.968 67.087C217.998 65.4516 217.519 61.6758 215.778 60.7979C214.038 59.9201 210.32 66.2152 210.32 66.2152Z" fill="#1A8FE3"/>
<path opacity="0.4" d="M210.32 66.2152C209.136 68.2053 213.428 69.1252 215.968 67.087C217.998 65.4516 217.519 61.6758 215.778 60.7979C214.038 59.9201 210.32 66.2152 210.32 66.2152Z" fill="black"/>
<path d="M228.263 211.32L223.652 211.668L221.964 200.888L226.576 200.539L228.263 211.32Z" fill="#E58A7B"/>
<path d="M260.883 196.253L256.969 198.754L250.002 190.36L253.915 187.853L260.883 196.253Z" fill="#E58A7B"/>
<path d="M221.964 200.888L222.9 206.877L227.446 206.101L226.582 200.545L221.964 200.888Z" fill="#CF6F64"/>
<path d="M253.921 187.859L250.002 190.36L252.891 193.836L256.892 191.437L253.921 187.859Z" fill="#CF6F64"/>
<path d="M206.608 106.541C206.608 106.541 206.543 143.71 209.533 157.707C212.646 172.269 221.805 205.397 221.805 205.397L228.447 204.526C228.447 204.526 223.255 171.06 221.041 156.588C218.632 140.818 220.112 103.871 220.112 103.871L206.608 106.541Z" fill="#1A8FE3"/>
<path opacity="0.7" d="M206.608 106.541C206.608 106.541 206.543 143.71 209.533 157.707C212.646 172.269 221.805 205.397 221.805 205.397L228.447 204.526C228.447 204.526 223.255 171.06 221.041 156.588C218.632 140.818 220.112 103.871 220.112 103.871L206.608 106.541Z" fill="black"/>
<path opacity="0.5" d="M219.697 120.345L216.441 117.05C216.565 131.33 217.353 138.383 220.058 146.067C219.632 137.944 219.596 128.336 219.697 120.345Z" fill="black"/>
<path d="M211.19 105.579C211.19 105.579 221.118 136.296 226.043 153.991C231.241 172.66 251.168 193.306 251.168 193.306L256.887 189.951C256.887 189.951 243.271 170.351 238.262 152.933C228.08 117.574 232.265 110.082 224.753 102.891L211.19 105.579Z" fill="#1A8FE3"/>
<path opacity="0.7" d="M211.19 105.579C211.19 105.579 221.118 136.296 226.043 153.991C231.241 172.66 251.168 193.306 251.168 193.306L256.887 189.951C256.887 189.951 243.271 170.351 238.262 152.933C228.08 117.574 232.265 110.082 224.753 102.891L211.19 105.579Z" fill="black"/>
<path d="M203.388 55.3687C206.028 56.2645 208.425 62.9203 208.526 65.5417C208.627 68.1632 200.877 71.7766 200.877 71.7766C200.877 71.7766 197.462 63.3592 198.415 57.948C198.829 55.5971 203.388 55.3687 203.388 55.3687Z" fill="#263238"/>
<path d="M167.151 85.6354L164.02 82.1722L162.995 86.5132C162.995 86.5132 165.221 88.5094 167.021 87.824L167.151 85.6354Z" fill="#E58A7B"/>
<path d="M160.846 81.1802L158.656 82.9478L162.995 86.5132L164.02 82.1722L160.846 81.1802Z" fill="#E58A7B"/>
<path d="M255.744 197.858L259.403 194.112C259.466 194.048 259.55 194.009 259.639 194.003C259.728 193.996 259.816 194.022 259.888 194.076L263.221 196.589C263.304 196.655 263.371 196.738 263.42 196.832C263.469 196.926 263.497 197.03 263.503 197.136C263.509 197.243 263.493 197.349 263.456 197.449C263.418 197.548 263.36 197.638 263.286 197.714C261.984 198.994 261.297 199.547 259.687 201.195C258.698 202.211 257.354 203.792 255.987 205.193C254.619 206.594 253.181 205.289 253.619 204.592C255.614 201.423 255.259 200.239 255.395 198.627C255.415 198.336 255.54 198.063 255.744 197.858Z" fill="#263238"/>
<path d="M223.344 210.995H228.542C228.633 210.995 228.722 211.027 228.792 211.087C228.862 211.146 228.91 211.228 228.926 211.32L229.743 215.492C229.762 215.595 229.757 215.7 229.731 215.801C229.705 215.902 229.657 215.996 229.59 216.076C229.524 216.155 229.442 216.219 229.348 216.263C229.255 216.307 229.153 216.329 229.051 216.328C227.233 216.298 226.357 216.19 224.072 216.19C222.669 216.19 219.768 216.334 217.826 216.334C215.885 216.334 215.677 214.386 216.477 214.212C220.029 213.418 221.42 212.33 222.586 211.284C222.797 211.1 223.066 210.998 223.344 210.995Z" fill="#263238"/>
<g style="mix-blend-mode:multiply" opacity="0.27">
<path d="M223.237 83.7595L220.396 85.4791L223.675 98.003C222.959 94.2092 223.279 90.0425 223.237 83.7595Z" fill="#1A8FE3"/>
</g>
<path d="M207.088 64.207C209.106 65.9205 212.037 68.4157 215.488 65.4997C218.448 62.9865 220.52 56.3908 215.21 56.1503C212.433 56.024 207.088 64.207 207.088 64.207Z" fill="#263238"/>
<path d="M211.966 65.3794C211.966 68.2173 212.398 73.3339 214.63 74.7889C214.63 74.7889 214.428 77.7109 209.42 78.697C203.92 79.7852 206.259 76.4423 206.259 76.4423C209.124 75.1196 208.627 72.8709 207.68 70.8507L211.966 65.3794Z" fill="#E58A7B"/>
<path d="M210.219 67.61L207.685 70.8508C207.907 71.3191 208.09 71.8059 208.23 72.3058C209.343 71.9089 210.675 70.3217 210.563 69.0771C210.538 68.5707 210.422 68.0733 210.219 67.61Z" fill="#CF6F64"/>
<path d="M212.232 58.862C212.824 63.4855 213.185 65.4276 211.362 68.2234C208.621 72.4321 202.902 72.1615 200.954 67.8145C199.178 63.9004 198.515 56.9921 202.565 54.3166C203.455 53.7179 204.481 53.3607 205.546 53.2788C206.611 53.1969 207.679 53.3931 208.648 53.8487C209.617 54.3043 210.455 55.0041 211.082 55.8816C211.709 56.7592 212.105 57.7852 212.232 58.862Z" fill="#E58A7B"/>
<path d="M204.323 50.7631C201.244 52.9817 207.419 53.6371 207.425 56.8538C207.425 58.1825 209.574 62.3972 212.629 62.1567L215.589 56.8177C218.703 51.7071 211.344 45.6946 204.323 50.7631Z" fill="#263238"/>
<path d="M204.323 50.7631C198.906 50.4745 196.544 54.8516 197.166 58.7837C200.944 57.8268 204.853 57.5119 208.733 57.8518C216.157 58.6214 204.323 50.7631 204.323 50.7631Z" fill="#263238"/>
<path d="M213.712 62.8482C213.787 63.7457 213.508 64.6367 212.936 65.3253C212.173 66.2332 211.16 65.6981 210.805 64.6219C210.503 63.6478 210.539 62.0065 211.569 61.4894C211.796 61.3825 212.047 61.3348 212.297 61.3507C212.547 61.3666 212.789 61.4455 213.002 61.5804C213.215 61.7152 213.391 61.9017 213.515 62.1231C213.639 62.3444 213.707 62.5936 213.712 62.8482Z" fill="#E58A7B"/>
<path d="M205.654 61.4894C205.725 61.8621 205.589 62.1988 205.352 62.2469C205.116 62.295 204.862 62.0305 204.791 61.6457C204.72 61.2609 204.856 60.9302 205.092 60.8821C205.329 60.834 205.583 61.1166 205.654 61.4894Z" fill="#263238"/>
<path d="M201.516 62.3071C201.587 62.6798 201.451 63.0225 201.214 63.0706C200.978 63.1187 200.723 62.8542 200.652 62.4694C200.582 62.0846 200.718 61.7539 200.954 61.7118C201.191 61.6697 201.445 61.9283 201.516 62.3071Z" fill="#263238"/>
<path d="M201.067 61.7178L200.137 61.6396C200.137 61.6396 200.724 62.2469 201.067 61.7178Z" fill="#263238"/>
<path d="M202.736 62.7339C202.57 63.6448 202.283 64.5286 201.884 65.3614C202.096 65.4619 202.327 65.514 202.562 65.514C202.796 65.514 203.027 65.4619 203.24 65.3614L202.736 62.7339Z" fill="#DF5753"/>
<path d="M204.785 66.5639C204.759 66.5643 204.734 66.5554 204.715 66.5388C204.695 66.5223 204.682 66.4992 204.678 66.4737C204.676 66.4595 204.676 66.4449 204.679 66.4308C204.682 66.4166 204.688 66.4033 204.696 66.3915C204.705 66.3798 204.715 66.3698 204.727 66.3622C204.739 66.3547 204.753 66.3496 204.767 66.3475C205.224 66.2666 205.657 66.0775 206.029 65.7955C206.401 65.5135 206.703 65.1465 206.91 64.7241C206.915 64.7107 206.923 64.6985 206.933 64.6882C206.944 64.6779 206.956 64.6697 206.969 64.6641C206.982 64.6586 206.996 64.6557 207.01 64.6556C207.025 64.6556 207.039 64.6584 207.052 64.664C207.065 64.6695 207.077 64.6776 207.087 64.6879C207.098 64.6981 207.106 64.7103 207.111 64.7237C207.117 64.7371 207.119 64.7514 207.119 64.766C207.119 64.7805 207.117 64.7948 207.111 64.8083C206.894 65.2673 206.572 65.6665 206.171 65.9721C205.77 66.2777 205.303 66.4807 204.808 66.5639H204.785Z" fill="#263238"/>
<path d="M206.608 59.8901C206.554 59.8907 206.501 59.8715 206.46 59.8359C206.261 59.6437 206.02 59.5021 205.756 59.4226C205.493 59.3432 205.215 59.3283 204.944 59.379C204.885 59.3941 204.822 59.3846 204.769 59.3525C204.716 59.3203 204.678 59.2682 204.663 59.2076C204.648 59.147 204.658 59.0829 204.689 59.0294C204.721 58.9758 204.772 58.9372 204.832 58.922C205.173 58.8538 205.526 58.8689 205.86 58.9661C206.195 59.0634 206.502 59.2399 206.756 59.4812C206.797 59.5228 206.819 59.579 206.819 59.6375C206.819 59.6961 206.797 59.7522 206.756 59.7939C206.739 59.8197 206.718 59.8416 206.692 59.8582C206.667 59.8748 206.638 59.8856 206.608 59.8901Z" fill="#263238"/>
<path d="M199.226 60.7258C199.198 60.732 199.17 60.732 199.143 60.7258C199.116 60.7146 199.091 60.6981 199.071 60.6771C199.05 60.6562 199.034 60.6313 199.023 60.6038C199.012 60.5764 199.006 60.547 199.006 60.5173C199.007 60.4877 199.013 60.4584 199.025 60.4312C199.15 60.1024 199.352 59.809 199.613 59.5757C199.873 59.3424 200.185 59.176 200.522 59.0904C200.551 59.0844 200.58 59.0843 200.609 59.0902C200.637 59.0961 200.664 59.1079 200.688 59.1247C200.712 59.1416 200.732 59.1633 200.747 59.1884C200.763 59.2135 200.773 59.2416 200.777 59.2708C200.783 59.2993 200.783 59.3287 200.778 59.3572C200.772 59.3858 200.761 59.413 200.745 59.4371C200.729 59.4613 200.708 59.4819 200.684 59.4977C200.66 59.5136 200.633 59.5243 200.605 59.5293C200.339 59.603 200.094 59.7387 199.888 59.9255C199.683 60.1123 199.523 60.3451 199.421 60.6056C199.402 60.6415 199.374 60.6716 199.34 60.6927C199.305 60.7139 199.266 60.7253 199.226 60.7258Z" fill="#263238"/>
<path d="M254.371 200.04C254.269 200.038 254.17 200.01 254.081 199.96C253.992 199.909 253.917 199.838 253.861 199.752C253.819 199.701 253.791 199.64 253.78 199.574C253.768 199.509 253.774 199.441 253.796 199.379C254.004 198.814 255.637 198.453 255.821 198.411C255.842 198.407 255.864 198.41 255.884 198.418C255.904 198.427 255.921 198.441 255.933 198.459C255.946 198.477 255.953 198.498 255.953 198.519C255.953 198.541 255.946 198.562 255.933 198.579C255.614 199.114 254.986 200.01 254.4 200.04H254.371ZM255.608 198.688C254.963 198.856 254.11 199.157 254.004 199.457C253.993 199.485 253.991 199.515 253.997 199.544C254.003 199.573 254.018 199.599 254.039 199.619C254.076 199.682 254.128 199.733 254.19 199.767C254.253 199.802 254.323 199.82 254.394 199.818C254.708 199.8 255.152 199.385 255.608 198.688Z" fill="#1A8FE3"/>
<path d="M255.341 198.688C254.749 198.688 254.009 198.537 253.79 198.213C253.742 198.139 253.719 198.05 253.727 197.962C253.734 197.873 253.771 197.79 253.832 197.726C253.884 197.658 253.949 197.603 254.024 197.564C254.098 197.525 254.18 197.502 254.264 197.497H254.311C254.974 197.497 255.886 198.405 255.922 198.441C255.936 198.455 255.946 198.472 255.951 198.491C255.957 198.51 255.956 198.53 255.951 198.549C255.946 198.568 255.936 198.585 255.923 198.598C255.909 198.612 255.893 198.622 255.874 198.627C255.7 198.67 255.521 198.69 255.341 198.688ZM254.311 197.72H254.276C254.223 197.721 254.171 197.735 254.124 197.76C254.076 197.785 254.035 197.821 254.004 197.864C253.921 197.978 253.944 198.044 253.974 198.086C254.152 198.363 255.057 198.519 255.614 198.453C255.259 198.086 254.806 197.831 254.311 197.72Z" fill="#1A8FE3"/>
<path d="M221.645 211.819C221.247 211.855 220.848 211.753 220.514 211.53C220.435 211.468 220.373 211.386 220.334 211.292C220.294 211.198 220.279 211.096 220.289 210.995C220.289 210.935 220.304 210.875 220.333 210.822C220.362 210.77 220.404 210.726 220.455 210.694C221 210.37 222.906 211.332 223.119 211.44C223.139 211.451 223.155 211.467 223.166 211.488C223.176 211.508 223.181 211.531 223.178 211.554C223.175 211.577 223.166 211.598 223.151 211.615C223.136 211.632 223.117 211.645 223.095 211.65C222.618 211.752 222.132 211.808 221.645 211.819ZM220.769 210.845C220.699 210.84 220.63 210.855 220.567 210.887C220.547 210.898 220.531 210.914 220.52 210.935C220.51 210.955 220.506 210.978 220.508 211.001C220.502 211.069 220.513 211.137 220.538 211.2C220.564 211.263 220.605 211.318 220.656 211.362C220.952 211.62 221.716 211.662 222.722 211.494C222.111 211.169 221.451 210.949 220.769 210.845Z" fill="#1A8FE3"/>
<path d="M223.072 211.638H223.03C222.438 211.38 221.296 210.358 221.378 209.835C221.378 209.714 221.485 209.558 221.781 209.528H221.87C222.9 209.528 223.166 211.44 223.178 211.524C223.181 211.544 223.178 211.565 223.171 211.584C223.164 211.603 223.152 211.619 223.137 211.632C223.116 211.641 223.093 211.643 223.072 211.638ZM221.888 209.738H221.822C221.633 209.738 221.621 209.829 221.621 209.853C221.574 210.171 222.355 210.971 222.947 211.326C222.829 210.857 222.527 209.75 221.864 209.75L221.888 209.738Z" fill="#1A8FE3"/>
<path d="M205.205 60.9001L204.276 60.8159C204.276 60.8159 204.862 61.4292 205.205 60.9001Z" fill="#263238"/>
<path d="M209.272 82.6953C199.368 84.9379 202.429 78.8533 203.021 77.5126L203.269 77.4164C204.453 76.9774 204.69 76.9113 206.265 76.4423C209.013 75.689 211.81 75.1364 214.636 74.7889L215.228 74.7047C215.82 74.6266 216.358 74.5665 216.903 74.5184C217.27 74.4763 217.637 74.4522 217.986 74.4282L219.17 74.356C219.372 75.294 219.863 80.3083 209.272 82.6953Z" fill="#E58A7B"/>
<path d="M224.818 101.737L225.972 103.252C226.061 103.366 225.937 103.528 225.724 103.571L206.389 107.394C206.223 107.431 206.069 107.394 206.04 107.268L205.548 105.627C205.548 105.513 205.643 105.386 205.821 105.35L224.492 101.659C224.549 101.642 224.608 101.64 224.665 101.654C224.722 101.667 224.775 101.696 224.818 101.737Z" fill="#26395A"/>
<path d="M222.716 104.352L223.22 104.256C223.32 104.256 223.385 104.172 223.368 104.106L222.716 101.977C222.716 101.911 222.598 101.881 222.497 101.899L222 101.995C221.899 101.995 221.834 102.085 221.852 102.146L222.503 104.28C222.521 104.34 222.622 104.376 222.716 104.352Z" fill="#1A8FE3"/>
<path d="M211.391 111.447L207.537 109.992L208.129 113.714C208.129 113.714 210.924 114.736 212.35 113.425L211.391 111.447Z" fill="#E58A7B"/>
<path d="M203.867 110.978L202.949 113.419L208.129 113.714L207.537 109.992L203.867 110.978Z" fill="#E58A7B"/>
<path d="M207.827 107.298L208.331 107.202C208.425 107.202 208.496 107.118 208.473 107.052L207.822 104.923C207.822 104.857 207.709 104.827 207.608 104.845L207.105 104.941C207.005 104.941 206.94 105.032 206.963 105.092L207.614 107.226C207.632 107.286 207.727 107.322 207.827 107.298Z" fill="#1A8FE3"/>
<path d="M215.275 105.819L215.772 105.723C215.873 105.723 215.938 105.639 215.92 105.573L215.269 103.444C215.269 103.378 215.151 103.348 215.05 103.366L214.553 103.462C214.452 103.462 214.387 103.553 214.405 103.613L215.056 105.747C215.079 105.782 215.114 105.808 215.153 105.821C215.193 105.834 215.236 105.833 215.275 105.819Z" fill="#1A8FE3"/>
<path d="M213.167 72.402C213.588 72.2397 214.115 73.7428 213.984 73.9352C213.682 74.3741 208.153 75.9073 207.904 75.0475C207.889 74.5814 207.959 74.1165 208.112 73.6766C208.272 73.388 209.497 73.9171 213.167 72.402Z" fill="#1A8FE3"/>
<path d="M212.232 72.438C212.445 71.939 213.055 71.1393 213.588 71.5963C214.121 72.0532 214.345 73.0392 213.996 73.2016C213.647 73.3639 211.865 73.2737 212.232 72.438Z" fill="#1A8FE3"/>
<path d="M213.363 72.6966C213.73 72.2998 214.547 71.7527 214.92 72.3659C215.293 72.9792 215.157 73.9833 214.778 74.0134C214.399 74.0434 212.741 73.352 213.363 72.6966Z" fill="#1A8FE3"/>
<path d="M213.564 72.6064C213.534 72.2867 213.596 71.9651 213.742 71.6803C213.888 71.3955 214.112 71.1596 214.387 71.0011C215.062 70.5562 215.719 70.2676 215.979 69.7986C216.092 70.2383 216.114 70.6967 216.044 71.1454C215.908 71.7887 213.807 72.2817 213.949 72.8409L213.564 72.6064Z" fill="#1A8FE3"/>
<path d="M213.475 72.5764C213.279 72.324 213.159 72.0194 213.13 71.6994C213.1 71.3793 213.163 71.0575 213.309 70.7726C213.629 70.0271 214.032 69.4258 214.008 68.8967C214.337 69.2043 214.601 69.5766 214.784 69.991C215.008 70.5922 213.511 72.1735 213.931 72.5703L213.475 72.5764Z" fill="#1A8FE3"/>
<path d="M254.649 190.03C254.637 190.029 254.625 190.026 254.615 190.019C254.604 190.013 254.596 190.004 254.59 189.994C254.453 189.801 240.92 170.189 235.959 152.957C232.722 141.903 230.233 130.638 228.512 119.239C227.488 112.818 226.866 108.94 224.83 105.759C224.816 105.745 224.808 105.725 224.808 105.705C224.808 105.685 224.816 105.665 224.83 105.651C224.844 105.639 224.862 105.632 224.88 105.632C224.899 105.632 224.916 105.639 224.93 105.651C226.991 108.862 227.612 112.752 228.636 119.191C230.366 130.573 232.858 141.823 236.096 152.861C241.051 170.068 254.572 189.657 254.708 189.855C254.719 189.87 254.725 189.888 254.725 189.906C254.725 189.925 254.719 189.943 254.708 189.958C254.707 189.974 254.701 189.991 254.69 190.004C254.68 190.017 254.665 190.026 254.649 190.03Z" fill="#1A8FE3"/>
<path opacity="0.4" d="M254.649 190.03C254.637 190.029 254.625 190.026 254.615 190.019C254.604 190.013 254.596 190.004 254.59 189.994C254.453 189.801 240.92 170.189 235.959 152.957C232.722 141.903 230.233 130.638 228.512 119.239C227.488 112.818 226.866 108.94 224.83 105.759C224.816 105.745 224.808 105.725 224.808 105.705C224.808 105.685 224.816 105.665 224.83 105.651C224.844 105.639 224.862 105.632 224.88 105.632C224.899 105.632 224.916 105.639 224.93 105.651C226.991 108.862 227.612 112.752 228.636 119.191C230.366 130.573 232.858 141.823 236.096 152.861C241.051 170.068 254.572 189.657 254.708 189.855C254.719 189.87 254.725 189.888 254.725 189.906C254.725 189.925 254.719 189.943 254.708 189.958C254.707 189.974 254.701 189.991 254.69 190.004C254.68 190.017 254.665 190.026 254.649 190.03Z" fill="black"/>
<path d="M229.637 204.502L220.591 205.692L219.999 203.131L229.418 201.105L229.637 204.502Z" fill="#1A8FE3"/>
<path d="M257.366 189.747L250.694 193.661L248.445 191.707L255.744 186.693L257.366 189.747Z" fill="#1A8FE3"/>
<path d="M226.055 80.645C226.375 82.3165 226.558 83.8917 226.736 85.5211C226.914 87.1505 226.979 88.7618 227.026 90.3912C227.073 92.0334 227.038 93.6769 226.92 95.3154C226.854 96.1391 226.783 96.9628 226.671 97.7925C226.624 98.2014 226.57 98.6162 226.493 99.0311L226.274 100.306C226.032 101.345 225.587 102.324 224.966 103.186C224.457 103.911 223.895 104.596 223.285 105.236C222.142 106.428 220.916 107.533 219.614 108.543C217.097 110.511 214.433 112.278 211.646 113.828L210.379 111.832C211.563 110.876 212.747 109.89 213.931 108.886C215.115 107.881 216.24 106.865 217.323 105.807C218.394 104.789 219.404 103.706 220.348 102.566C220.782 102.039 221.178 101.48 221.532 100.895C221.812 100.468 222.013 99.9937 222.124 99.4941C222.317 98.0345 222.43 96.5652 222.462 95.0929C222.462 94.3414 222.462 93.5898 222.462 92.8383C222.462 92.0867 222.432 91.3231 222.397 90.5656C222.326 89.0504 222.189 87.5593 222.03 86.0202C221.87 84.481 221.663 82.9598 221.438 81.5349L226.055 80.645Z" fill="#E58A7B"/>
<path d="M225.339 75.5345C227.867 77.6148 227.263 83.7956 227.263 83.7956L218.738 86.6455C218.738 86.6455 219.129 79.5208 219.555 76.9595C220.052 73.9111 222.847 73.4843 225.339 75.5345Z" fill="#1A8FE3"/>
<path opacity="0.2" d="M225.339 75.5345C227.867 77.6148 227.263 83.7956 227.263 83.7956L218.738 86.6455C218.738 86.6455 219.129 79.5208 219.555 76.9595C220.052 73.9111 222.847 73.4843 225.339 75.5345Z" fill="black"/>
<path d="M112.723 101.328C112.392 99.8701 111.584 98.5692 110.432 97.6377C109.279 96.7062 107.849 96.1992 106.376 96.1993H59.0164C57.2893 96.1993 55.633 96.8961 54.4117 98.1364C53.1905 99.3767 52.5044 101.059 52.5044 102.813V209.726C52.5044 211.481 53.1905 213.163 54.4117 214.403C55.633 215.643 57.2893 216.34 59.0164 216.34H209.384C211.111 216.34 212.768 215.643 213.989 214.403C215.21 213.163 215.896 211.481 215.896 209.726V119.918C215.896 118.164 215.21 116.482 213.989 115.242C212.768 114.002 211.111 113.305 209.384 113.305H127.54C124.101 113.305 120.762 112.121 118.071 109.946C115.38 107.77 113.494 104.732 112.723 101.328Z" fill="#1A8FE3"/>
<path opacity="0.6" d="M112.723 101.328C112.392 99.8701 111.584 98.5692 110.432 97.6377C109.279 96.7062 107.849 96.1992 106.376 96.1993H59.0164C57.2893 96.1993 55.633 96.8961 54.4117 98.1364C53.1905 99.3767 52.5044 101.059 52.5044 102.813V209.726C52.5044 211.481 53.1905 213.163 54.4117 214.403C55.633 215.643 57.2893 216.34 59.0164 216.34H209.384C211.111 216.34 212.768 215.643 213.989 214.403C215.21 213.163 215.896 211.481 215.896 209.726V119.918C215.896 118.164 215.21 116.482 213.989 115.242C212.768 114.002 211.111 113.305 209.384 113.305H127.54C124.101 113.305 120.762 112.121 118.071 109.946C115.38 107.77 113.494 104.732 112.723 101.328Z" fill="black"/>
<path opacity="0.22" d="M96.0046 68.0309L100.226 81.9137C100.764 83.6806 101.972 85.158 103.582 86.0215C105.193 86.8851 107.075 87.0641 108.816 86.5192L122.479 82.2324L96.0046 68.0309Z" fill="#1A8FE3"/>
<path d="M96.0046 68.0309L47.1646 83.3567C46.3024 83.6257 45.5009 84.0647 44.806 84.6486C44.111 85.2325 43.5362 85.9499 43.1145 86.7596C42.6928 87.5693 42.4324 88.4555 42.3482 89.3676C42.264 90.2796 42.3577 91.1995 42.6239 92.0748L70.5071 183.753C70.7733 184.628 71.2066 185.441 71.7823 186.147C72.3581 186.852 73.065 187.435 73.8627 187.863C74.6604 188.29 75.5332 188.554 76.4314 188.639C77.3295 188.724 78.2353 188.629 79.0971 188.358L141.606 168.746C142.468 168.476 143.269 168.036 143.963 167.452C144.657 166.868 145.232 166.151 145.653 165.341C146.074 164.531 146.334 163.645 146.418 162.734C146.501 161.822 146.407 160.902 146.141 160.028L122.461 82.2324L96.0046 68.0309Z" fill="#1A8FE3"/>
<path opacity="0.8" d="M96.0046 68.0309L47.1646 83.3567C46.3024 83.6257 45.5009 84.0647 44.806 84.6486C44.111 85.2325 43.5362 85.9499 43.1145 86.7596C42.6928 87.5693 42.4324 88.4555 42.3482 89.3676C42.264 90.2796 42.3577 91.1995 42.6239 92.0748L70.5071 183.753C70.7733 184.628 71.2066 185.441 71.7823 186.147C72.3581 186.852 73.065 187.435 73.8627 187.863C74.6604 188.29 75.5332 188.554 76.4314 188.639C77.3295 188.724 78.2353 188.629 79.0971 188.358L141.606 168.746C142.468 168.476 143.269 168.036 143.963 167.452C144.657 166.868 145.232 166.151 145.653 165.341C146.074 164.531 146.334 163.645 146.418 162.734C146.501 161.822 146.407 160.902 146.141 160.028L122.461 82.2324L96.0046 68.0309Z" fill="white"/>
<g opacity="0.28">
<path d="M122.284 164.741L81.6487 177.488C80.8887 177.725 80.0673 177.647 79.364 177.27C78.6607 176.894 78.1326 176.25 77.8954 175.479C77.664 174.708 77.7427 173.874 78.1143 173.161C78.4859 172.448 79.1201 171.913 79.8786 171.674L120.513 158.921C121.274 158.684 122.096 158.763 122.8 159.141C123.503 159.518 124.031 160.164 124.267 160.935C124.498 161.707 124.419 162.541 124.048 163.254C123.676 163.967 123.042 164.501 122.284 164.741Z" fill="#1A8FE3"/>
</g>
<g opacity="0.28">
<path d="M78.5524 89.9343L57.0628 96.6743C56.3029 96.9097 55.4822 96.8308 54.7793 96.4547C54.0763 96.0786 53.5481 95.4358 53.3095 94.6661C53.078 93.8935 53.1565 93.0593 53.528 92.3453C53.8995 91.6313 54.5338 91.0953 55.2927 90.8542L76.7823 84.1143C77.5422 83.8756 78.3644 83.953 79.0681 84.3295C79.7719 84.7061 80.2997 85.3509 80.5356 86.1224C80.7671 86.895 80.6886 87.7292 80.3171 88.4433C79.9456 89.1573 79.3113 89.6933 78.5524 89.9343Z" fill="#1A8FE3"/>
</g>
<g opacity="0.28">
<path d="M96.0875 97.0831L60.5675 108.224C59.8091 108.455 58.9916 108.374 58.2922 107.997C57.5928 107.62 57.0681 106.978 56.8319 106.21C56.5987 105.439 56.6758 104.606 57.0465 103.892C57.4171 103.179 58.0509 102.644 58.8092 102.404L94.3292 91.263C95.0891 91.026 95.9106 91.1042 96.6139 91.4805C97.3172 91.8568 97.8452 92.5006 98.0825 93.2712C98.3119 94.0454 98.231 94.8802 97.8574 95.5941C97.4837 96.308 96.8476 96.8432 96.0875 97.0831Z" fill="#1A8FE3"/>
</g>
<g opacity="0.28">
<path d="M115.92 103.51L64.084 119.744C63.3249 119.981 62.5042 119.903 61.8019 119.526C61.0995 119.15 60.5726 118.506 60.3367 117.736C60.1049 116.964 60.1826 116.131 60.5529 115.417C60.9232 114.703 61.5561 114.166 62.3139 113.924L114.149 97.6904C114.909 97.4552 115.729 97.5342 116.43 97.9104C117.132 98.2866 117.66 98.9293 117.897 99.6985C118.13 100.47 118.053 101.305 117.683 102.019C117.312 102.733 116.678 103.269 115.92 103.51Z" fill="#1A8FE3"/>
</g>
<g opacity="0.28">
<path d="M119.43 115.054L89.2972 124.512C88.5373 124.747 87.7167 124.667 87.0146 124.29C86.3125 123.912 85.7859 123.268 85.5498 122.498C85.3182 121.727 85.3961 120.894 85.7665 120.181C86.1369 119.468 86.7698 118.933 87.5271 118.692L117.66 109.234C118.421 109.001 119.241 109.081 119.944 109.458C120.647 109.835 121.175 110.479 121.413 111.248C121.645 112.02 121.566 112.854 121.194 113.567C120.823 114.28 120.188 114.815 119.43 115.054Z" fill="#1A8FE3"/>
</g>
<g opacity="0.28">
<path d="M75.48 128.847L67.6005 131.318C66.8406 131.555 66.0192 131.477 65.3158 131.101C64.6125 130.724 64.0845 130.08 63.8472 129.31C63.6141 128.537 63.6919 127.702 64.0636 126.988C64.4353 126.273 65.0706 125.738 65.8304 125.498L73.71 123.027C74.4699 122.791 75.2906 122.87 75.9935 123.246C76.6964 123.623 77.2247 124.265 77.4632 125.035C77.6932 125.808 77.6139 126.641 77.2426 127.355C76.8714 128.068 76.238 128.604 75.48 128.847Z" fill="#1A8FE3"/>
</g>
<g opacity="0.28">
<path d="M122.947 126.604L71.111 142.868C70.3511 143.103 69.5305 143.023 68.8284 142.646C68.1263 142.268 67.5998 141.624 67.3637 140.854C67.1305 140.083 67.2076 139.249 67.5782 138.536C67.9488 137.823 68.5827 137.288 69.341 137.048L121.176 120.784C121.936 120.549 122.756 120.628 123.457 121.004C124.159 121.38 124.687 122.023 124.924 122.792C125.157 123.564 125.08 124.398 124.71 125.113C124.339 125.827 123.705 126.363 122.947 126.604Z" fill="#1A8FE3"/>
</g>
<g opacity="0.28">
<path d="M106.453 144.425L74.6216 154.412C73.8625 154.647 73.0426 154.568 72.3406 154.192C71.6386 153.816 71.1116 153.173 70.8743 152.404C70.6425 151.632 70.7202 150.798 71.0905 150.085C71.4608 149.371 72.0937 148.834 72.8515 148.592L104.683 138.605C105.444 138.37 106.265 138.45 106.969 138.827C107.672 139.204 108.199 139.849 108.437 140.619C108.67 141.391 108.592 142.225 108.22 142.939C107.848 143.652 107.213 144.187 106.453 144.425Z" fill="#1A8FE3"/>
</g>
<g opacity="0.28">
<path d="M126.457 138.154L117.962 140.818C117.201 141.053 116.38 140.973 115.677 140.596C114.974 140.219 114.446 139.574 114.209 138.804C113.977 138.032 114.056 137.198 114.428 136.485C114.799 135.772 115.433 135.237 116.192 134.998L124.687 132.334C125.446 132.097 126.267 132.176 126.969 132.552C127.672 132.928 128.198 133.572 128.434 134.342C128.668 135.114 128.591 135.948 128.22 136.663C127.85 137.377 127.216 137.913 126.457 138.154Z" fill="#1A8FE3"/>
</g>
<g opacity="0.28">
<path d="M129.968 149.71L78.1439 165.944C77.3832 166.181 76.5611 166.102 75.8576 165.724C75.1542 165.347 74.6267 164.701 74.3906 163.93C74.1576 163.158 74.2356 162.324 74.6074 161.61C74.9792 160.897 75.6144 160.362 76.3738 160.124L128.203 143.86C128.964 143.627 129.785 143.707 130.487 144.084C131.19 144.461 131.718 145.104 131.957 145.874C132.076 146.259 132.118 146.663 132.083 147.065C132.047 147.466 131.933 147.856 131.748 148.213C131.564 148.569 131.311 148.885 131.005 149.142C130.7 149.399 130.347 149.592 129.968 149.71Z" fill="#1A8FE3"/>
</g>
<path d="M131.081 33.5555L146.579 68.6322C146.982 69.5478 147.011 70.588 146.66 71.5254C146.31 72.4627 145.608 73.221 144.708 73.6345L78.9609 103.607C78.0596 104.017 77.0348 104.047 76.1114 103.691C75.188 103.335 74.4414 102.621 74.0355 101.707L58.531 66.63C58.1252 65.7139 58.0943 64.6716 58.4451 63.7324C58.7959 62.7931 59.4998 62.0339 60.4017 61.6217L126.149 31.6496C127.052 31.2411 128.078 31.2123 129.002 31.5694C129.926 31.9265 130.673 32.6406 131.081 33.5555Z" fill="#1A8FE3"/>
<path opacity="0.3" d="M131.081 33.5555L146.579 68.6322C146.982 69.5478 147.011 70.588 146.66 71.5254C146.31 72.4627 145.608 73.221 144.708 73.6345L78.9609 103.607C78.0596 104.017 77.0348 104.047 76.1114 103.691C75.188 103.335 74.4414 102.621 74.0355 101.707L58.531 66.63C58.1252 65.7139 58.0943 64.6716 58.4451 63.7324C58.7959 62.7931 59.4998 62.0339 60.4017 61.6217L126.149 31.6496C127.052 31.2411 128.078 31.2123 129.002 31.5694C129.926 31.9265 130.673 32.6406 131.081 33.5555Z" fill="black"/>
<path d="M120.719 31.8223L118.617 32.7795L118.86 33.3281L120.961 32.3709L120.719 31.8223Z" fill="#1A8FE3"/>
<path d="M115.675 34.1173L109.123 37.1022L109.365 37.6508L115.917 34.6658L115.675 34.1173Z" fill="#1A8FE3"/>
<path d="M58.4722 70.1653L57.9326 70.4114L59.7267 74.4695L60.2663 74.2235L58.4722 70.1653Z" fill="#1A8FE3"/>
<path opacity="0.6" d="M128.878 31.5233L111.923 65.2532C110.35 68.3795 107.774 70.867 104.62 72.3046C101.466 73.7422 97.9234 74.0438 94.5779 73.1595L58.4955 63.6058C58.8656 62.7265 59.5453 62.019 60.4017 61.6216L126.149 31.6496C127.01 31.2584 127.986 31.2133 128.878 31.5233Z" fill="#1A8FE3"/>
<path d="M152.185 74.6927L101.167 77.8914C100.265 77.9458 99.3835 78.1802 98.5715 78.5812C97.7595 78.9821 97.0333 79.5418 96.4345 80.2282C95.8357 80.9145 95.376 81.714 95.0818 82.581C94.7876 83.448 94.6646 84.3654 94.7199 85.2807L100.539 181.047C100.594 181.963 100.825 182.859 101.221 183.684C101.617 184.509 102.169 185.246 102.846 185.854C103.523 186.462 104.312 186.928 105.166 187.225C106.021 187.523 106.925 187.646 107.827 187.589L173.124 183.494C174.025 183.439 174.905 183.204 175.716 182.803C176.527 182.401 177.252 181.841 177.849 181.155C178.446 180.468 178.904 179.669 179.197 178.802C179.489 177.936 179.61 177.019 179.554 176.105L174.64 94.8345L152.185 74.6927Z" fill="#1A8FE3"/>
<path opacity="0.8" d="M152.185 74.6927L101.167 77.8914C100.265 77.9458 99.3835 78.1802 98.5715 78.5812C97.7595 78.9821 97.0333 79.5418 96.4345 80.2282C95.8357 80.9145 95.376 81.714 95.0818 82.581C94.7876 83.448 94.6646 84.3654 94.7199 85.2807L100.539 181.047C100.594 181.963 100.825 182.859 101.221 183.684C101.617 184.509 102.169 185.246 102.846 185.854C103.523 186.462 104.312 186.928 105.166 187.225C106.021 187.523 106.925 187.646 107.827 187.589L173.124 183.494C174.025 183.439 174.905 183.204 175.716 182.803C176.527 182.401 177.252 181.841 177.849 181.155C178.446 180.468 178.904 179.669 179.197 178.802C179.489 177.936 179.61 177.019 179.554 176.105L174.64 94.8345L152.185 74.6927Z" fill="white"/>
<g opacity="0.22">
<path d="M155.27 174.962L112.817 177.626C112.024 177.672 111.246 177.398 110.651 176.862C110.057 176.327 109.695 175.575 109.644 174.77C109.599 173.965 109.868 173.174 110.394 172.57C110.919 171.965 111.658 171.595 112.45 171.541L154.903 168.884C155.696 168.836 156.475 169.109 157.071 169.643C157.667 170.177 158.03 170.929 158.082 171.734C158.129 172.54 157.859 173.333 157.332 173.938C156.805 174.543 156.064 174.911 155.27 174.962Z" fill="#1A8FE3"/>
</g>
<g opacity="0.22">
<path d="M130.145 91.7982L107.691 93.1931C106.898 93.2392 106.119 92.9658 105.524 92.4321C104.929 91.8985 104.565 91.1478 104.512 90.3432C104.466 89.5371 104.736 88.7455 105.263 88.1407C105.79 87.5359 106.53 87.1671 107.324 87.1145L129.778 85.7076C130.571 85.6598 131.35 85.9329 131.944 86.467C132.539 87.0011 132.901 87.7528 132.951 88.5575C133.002 89.3649 132.734 90.1597 132.208 90.7673C131.682 91.3749 130.94 91.7456 130.145 91.7982Z" fill="#1A8FE3"/>
</g>
<g opacity="0.22">
<path d="M145.525 102.945L108.425 105.266C107.631 105.315 106.851 105.043 106.255 104.509C105.659 103.975 105.296 103.222 105.246 102.416C105.199 101.61 105.468 100.817 105.995 100.212C106.522 99.607 107.264 99.2386 108.058 99.1875L145.152 96.8667C145.946 96.8173 146.726 97.0896 147.322 97.6239C147.918 98.1582 148.281 98.9108 148.331 99.7166C148.379 100.522 148.11 101.314 147.584 101.919C147.058 102.524 146.318 102.893 145.525 102.945Z" fill="#1A8FE3"/>
</g>
<g opacity="0.22">
<path d="M163.303 113.942L109.159 117.333C108.363 117.382 107.581 117.11 106.983 116.574C106.385 116.039 106.02 115.285 105.968 114.477C105.921 113.672 106.19 112.881 106.716 112.277C107.242 111.673 107.982 111.306 108.774 111.254L162.924 107.857C163.717 107.811 164.496 108.086 165.091 108.621C165.685 109.156 166.047 109.908 166.097 110.713C166.145 111.517 165.877 112.307 165.354 112.911C164.831 113.516 164.094 113.886 163.303 113.942Z" fill="#1A8FE3"/>
</g>
<g opacity="0.22">
<path d="M164.037 126.003L132.561 127.975C131.768 128.023 130.988 127.75 130.392 127.216C129.797 126.682 129.433 125.93 129.382 125.125C129.333 124.319 129.601 123.527 130.127 122.921C130.653 122.316 131.394 121.948 132.188 121.896L163.664 119.924C164.458 119.875 165.238 120.147 165.834 120.682C166.43 121.216 166.793 121.969 166.843 122.774C166.89 123.58 166.622 124.371 166.096 124.976C165.57 125.581 164.83 125.95 164.037 126.003Z" fill="#1A8FE3"/>
</g>
<g opacity="0.22">
<path d="M118.122 128.877L109.887 129.394C109.095 129.442 108.316 129.169 107.721 128.635C107.126 128.1 106.764 127.349 106.714 126.544C106.667 125.739 106.936 124.947 107.461 124.342C107.987 123.737 108.727 123.368 109.52 123.315L117.755 122.798C118.548 122.752 119.328 123.026 119.923 123.561C120.519 124.096 120.882 124.849 120.934 125.654C120.979 126.46 120.709 127.251 120.182 127.854C119.655 128.458 118.915 128.826 118.122 128.877Z" fill="#1A8FE3"/>
</g>
<g opacity="0.22">
<path d="M164.771 138.064L110.621 141.455C109.828 141.503 109.049 141.23 108.453 140.696C107.857 140.162 107.494 139.41 107.442 138.605C107.397 137.799 107.667 137.007 108.193 136.403C108.72 135.798 109.461 135.429 110.254 135.376L164.398 131.985C165.192 131.938 165.973 132.211 166.569 132.747C167.164 133.282 167.527 134.035 167.577 134.841C167.624 135.646 167.356 136.437 166.83 137.041C166.304 137.645 165.564 138.013 164.771 138.064Z" fill="#1A8FE3"/>
</g>
<g opacity="0.22">
<path d="M144.608 151.436L111.355 153.522C110.562 153.568 109.782 153.294 109.187 152.759C108.591 152.224 108.228 151.472 108.176 150.666C108.131 149.861 108.401 149.07 108.928 148.466C109.455 147.862 110.195 147.495 110.988 147.443L144.241 145.357C145.034 145.311 145.813 145.585 146.407 146.121C147.002 146.656 147.364 147.408 147.414 148.213C147.463 149.018 147.194 149.81 146.668 150.414C146.142 151.019 145.401 151.386 144.608 151.436Z" fill="#1A8FE3"/>
</g>
<g opacity="0.22">
<path d="M165.5 150.131L156.62 150.684C155.827 150.732 155.048 150.459 154.454 149.925C153.859 149.391 153.497 148.639 153.446 147.834C153.398 147.028 153.666 146.236 154.192 145.631C154.718 145.025 155.459 144.657 156.252 144.606L165.132 144.052C165.926 144.003 166.706 144.275 167.302 144.81C167.898 145.344 168.261 146.097 168.312 146.902C168.357 147.708 168.087 148.5 167.56 149.105C167.033 149.71 166.293 150.078 165.5 150.131Z" fill="#1A8FE3"/>
</g>
<g opacity="0.22">
<path d="M166.234 162.192L112.089 165.583C111.296 165.631 110.517 165.358 109.921 164.824C109.325 164.29 108.962 163.538 108.91 162.733C108.863 161.928 109.132 161.136 109.658 160.531C110.183 159.926 110.923 159.557 111.716 159.504L165.867 156.113C166.659 156.066 167.438 156.339 168.033 156.873C168.627 157.407 168.989 158.159 169.04 158.963C169.088 159.769 168.82 160.562 168.294 161.167C167.768 161.772 167.027 162.141 166.234 162.192Z" fill="#1A8FE3"/>
</g>
<path opacity="0.22" d="M152.185 74.6927L153.067 89.1948C153.123 90.1092 153.354 91.0035 153.75 91.8269C154.145 92.6502 154.697 93.3864 155.372 93.9933C156.048 94.6002 156.835 95.066 157.688 95.364C158.541 95.6621 159.443 95.7865 160.343 95.7303L174.64 94.8345L152.185 74.6927Z" fill="#1A8FE3"/>
<path opacity="0.5" d="M135.479 110.87C135.47 110.175 135.324 109.489 135.05 108.852C134.775 108.215 134.378 107.641 133.881 107.163C133.385 106.685 132.799 106.313 132.158 106.068C131.517 105.824 130.835 105.713 130.151 105.741H82.732C79.1385 105.741 75.628 108.705 74.9531 112.355L56.24 209.726C55.5414 213.376 57.8857 216.34 61.4792 216.34H211.847C215.441 216.34 218.922 213.382 219.626 209.726L235.059 129.46C235.758 125.805 233.414 122.846 229.82 122.846H148C140.896 122.846 135.722 117.88 135.479 110.87Z" fill="#1A8FE3"/>
</svg>
