<svg width="296" height="224" viewBox="0 0 296 224" fill="none" xmlns="http://www.w3.org/2000/svg">
<path d="M296 196.848H0V196.998H296V196.848Z" fill="#EBEBEB"/>
<path d="M206.211 203.558H200.007V203.708H206.211V203.558Z" fill="#EBEBEB"/>
<path d="M62.2667 200.551H38.4387V200.702H62.2667V200.551Z" fill="#EBEBEB"/>
<path d="M109.123 200.996H74.1067V201.147H109.123V200.996Z" fill="#EBEBEB"/>
<path d="M159.248 200.996H149.166V201.147H159.248V200.996Z" fill="#EBEBEB"/>
<path d="M264.056 201.946H231.732V202.097H264.056V201.946Z" fill="#EBEBEB"/>
<path d="M135.438 204.423H122.082V204.574H135.438V204.423Z" fill="#EBEBEB"/>
<path d="M275.985 202.024H267.513V202.175H275.985V202.024Z" fill="#EBEBEB"/>
<path d="M140.304 170.032H25.9948C25.0993 170.031 24.241 169.668 23.6083 169.025C22.9757 168.381 22.6204 167.509 22.6204 166.599V3.40305C22.6282 2.49879 22.9869 1.63417 23.6187 0.996996C24.2505 0.35982 25.1044 0.00154904 25.9948 0H140.304C141.201 0 142.06 0.361702 142.694 1.00554C143.328 1.64937 143.684 2.52259 143.684 3.43311V166.599C143.684 167.51 143.328 168.383 142.694 169.027C142.06 169.671 141.201 170.032 140.304 170.032ZM25.9948 0.12025C25.1385 0.121842 24.3179 0.468409 23.713 1.08388C23.1081 1.69935 22.7684 2.53344 22.7684 3.40305V166.599C22.7684 167.469 23.1081 168.303 23.713 168.918C24.3179 169.534 25.1385 169.88 25.9948 169.882H140.304C141.161 169.88 141.982 169.534 142.588 168.919C143.194 168.303 143.535 167.469 143.536 166.599V3.40305C143.535 2.53288 143.194 1.69881 142.588 1.08351C141.982 0.468214 141.161 0.121839 140.304 0.12025H25.9948Z" fill="#EBEBEB"/>
<path d="M268.36 170.032H154.044C153.148 170.031 152.289 169.668 151.656 169.025C151.022 168.381 150.666 167.509 150.664 166.599V3.40305C150.673 2.49824 151.033 1.63363 151.666 0.99662C152.299 0.35961 153.153 0.00153215 154.044 0H268.36C269.249 0.00312918 270.101 0.3621 270.732 0.999106C271.362 1.63611 271.72 2.49983 271.728 3.40305V166.599C271.728 167.508 271.374 168.379 270.742 169.022C270.111 169.666 269.254 170.029 268.36 170.032ZM154.044 0.12025C153.188 0.121839 152.366 0.468214 151.761 1.08351C151.155 1.69881 150.814 2.53288 150.812 3.40305V166.599C150.814 167.469 151.155 168.303 151.761 168.919C152.366 169.534 153.188 169.88 154.044 169.882H268.36C269.216 169.88 270.038 169.534 270.643 168.919C271.249 168.303 271.59 167.469 271.592 166.599V3.40305C271.59 2.53288 271.249 1.69881 270.643 1.08351C270.038 0.468214 269.216 0.121839 268.36 0.12025H154.044Z" fill="#EBEBEB"/>
<path d="M43.1096 106.679L123.787 106.679L123.787 11.2012L43.1096 11.2012L43.1096 106.679Z" fill="#F5F5F5"/>
<path d="M40.9131 106.679L122.757 106.679L122.757 11.2012L40.9131 11.2012L40.9131 106.679Z" fill="#F5F5F5"/>
<path d="M43.1096 112.024L123.787 112.024V106.673L43.1096 106.673V112.024Z" fill="#E6E6E6"/>
<path d="M30.8848 112.024L107.934 112.024V106.673L30.8848 106.673V112.024Z" fill="#F5F5F5"/>
<path d="M119.691 102.627V15.2476L43.9857 15.2476V102.627H119.691Z" fill="#FAFAFA"/>
<path d="M108.798 102.627L90.7775 15.2536H67.1626L85.1772 102.627H108.798Z" fill="white"/>
<path d="M81.3528 102.627L63.3382 15.2536H52.6704L70.6909 102.627H81.3528Z" fill="white"/>
<path d="M44.3704 93.4877L44.3704 14.7065H43.9796L43.9796 93.4877H44.3704Z" fill="white"/>
<path d="M126.096 11.063V45.0574H117.216C117.216 45.0574 101.303 34.5175 97.6801 12.8306C97.5941 12.3141 97.6199 11.7848 97.7557 11.2795C97.8915 10.7742 98.134 10.305 98.4664 9.90444C98.7988 9.50392 99.2131 9.18172 99.6805 8.96024C100.148 8.73876 100.657 8.6233 101.173 8.62189H123.669C123.986 8.61952 124.301 8.68086 124.595 8.8024C124.889 8.92393 125.156 9.10327 125.382 9.3301C125.608 9.55693 125.787 9.82678 125.909 10.1242C126.032 10.4215 126.095 10.7406 126.096 11.063Z" fill="#E6E6E6"/>
<path d="M126.096 99.5482V47.799H117.216C117.216 47.799 112.125 58.2487 107.045 70.2615C105.704 73.4606 105.165 76.9473 105.475 80.4099C105.784 83.8725 106.934 87.2032 108.821 90.1042C110.708 93.0052 113.274 95.3861 116.288 97.0341C119.303 98.6822 122.672 99.5459 126.096 99.5482Z" fill="#E6E6E6"/>
<path d="M117.488 47.799H125.758C126.249 47.799 126.646 47.3952 126.646 46.8971V45.9592C126.646 45.4611 126.249 45.0573 125.758 45.0573H117.488C116.998 45.0573 116.6 45.4611 116.6 45.9592V46.8971C116.6 47.3952 116.998 47.799 117.488 47.799Z" fill="#F5F5F5"/>
<path d="M38.4031 11.063V45.0574H47.2831C47.2831 45.0574 63.196 34.5175 66.8191 12.8306C66.905 12.3141 66.8792 11.7848 66.7434 11.2795C66.6076 10.7742 66.3651 10.305 66.0327 9.90444C65.7003 9.50392 65.286 9.18172 64.8187 8.96024C64.3513 8.73876 63.842 8.6233 63.3263 8.62189H40.8303C40.5129 8.61952 40.1981 8.68086 39.9041 8.8024C39.6101 8.92393 39.3427 9.10327 39.1171 9.3301C38.8916 9.55693 38.7124 9.82678 38.5899 10.1242C38.4673 10.4215 38.4038 10.7406 38.4031 11.063Z" fill="#E6E6E6"/>
<path d="M38.4031 99.5482V47.799H47.2831C47.2831 47.799 52.3743 58.2487 57.4536 70.2615C58.7939 73.4587 59.3337 76.9432 59.0249 80.4039C58.7161 83.8646 57.5683 87.1938 55.684 90.0942C53.7996 92.9946 51.2374 95.3759 48.2261 97.0256C45.2149 98.6753 41.8482 99.542 38.4268 99.5482H38.4031Z" fill="#E6E6E6"/>
<path d="M47.0049 45.0573H38.7347C38.2443 45.0573 37.8467 45.4611 37.8467 45.9592V46.8971C37.8467 47.3952 38.2443 47.799 38.7347 47.799H47.0049C47.4953 47.799 47.8929 47.3952 47.8929 46.8971V45.9592C47.8929 45.4611 47.4953 45.0573 47.0049 45.0573Z" fill="#F5F5F5"/>
<path d="M238.6 46.8851V38.4617H229.37V46.8851H238.6Z" fill="#F5F5F5"/>
<path d="M238.6 59.6676V51.2441H229.37V59.6676H238.6Z" fill="#F5F5F5"/>
<path d="M238.6 72.4501V64.0266H229.37V72.4501H238.6Z" fill="#F5F5F5"/>
<path d="M180.655 72.7507C185.751 72.6604 190.609 70.5407 194.182 66.8482C197.755 63.1557 199.757 58.1858 199.757 53.0088C199.757 47.8318 197.755 42.8619 194.182 39.1694C190.609 35.4769 185.751 33.3572 180.655 33.2669H179.471V72.7507H180.655Z" fill="#E6E6E6"/>
<path d="M183.995 72.2077C194.434 69.6665 200.867 59.0125 198.365 48.4114C195.863 37.8102 185.373 31.2763 174.934 33.8175C164.496 36.3587 158.063 47.0127 160.565 57.6139C163.067 68.215 173.557 74.7489 183.995 72.2077Z" fill="#F5F5F5"/>
<path d="M181.826 67.7187C189.815 66.3914 195.232 58.7378 193.925 50.6239C192.618 42.5099 185.082 37.0082 177.093 38.3355C169.104 39.6628 163.687 47.3163 164.994 55.4303C166.301 63.5442 173.836 69.0459 181.826 67.7187Z" fill="white"/>
<path d="M173.397 58.5673L172.254 56.9018L178.352 52.5849L176.339 42.6403L178.293 42.2314L180.572 53.4807L173.397 58.5673Z" fill="#E6E6E6"/>
<path d="M84.952 198.982H110.355L110.355 129.274H84.952V198.982Z" fill="#E6E6E6"/>
<path d="M91.7365 198.976H84.9521V187.432H98.8464L91.7365 198.976Z" fill="#F0F0F0"/>
<path d="M84.952 195.008L243.17 195.008V129.274H84.952V195.008Z" fill="#FAFAFA"/>
<path d="M236.386 198.976H243.17V187.432H229.27L236.386 198.976Z" fill="#F0F0F0"/>
<path d="M90.2151 159.12L237.907 159.12V134.926L90.2151 134.926V159.12Z" fill="#F0F0F0"/>
<path d="M90.2151 189.158L237.907 189.158V164.964L90.2151 164.964V189.158Z" fill="#F0F0F0"/>
<path d="M198.853 122.462C201.782 122.462 204.157 120.05 204.157 117.075C204.157 114.099 201.782 111.687 198.853 111.687C195.923 111.687 193.549 114.099 193.549 117.075C193.549 120.05 195.923 122.462 198.853 122.462Z" fill="#F5F5F5"/>
<path d="M202.594 119.648C202.594 120.48 202.837 121.294 203.293 121.986C203.748 122.678 204.395 123.218 205.152 123.536C205.91 123.855 206.743 123.938 207.547 123.776C208.351 123.613 209.089 123.212 209.668 122.624C210.248 122.035 210.643 121.285 210.803 120.469C210.963 119.652 210.88 118.806 210.567 118.037C210.253 117.268 209.722 116.611 209.041 116.148C208.359 115.686 207.558 115.439 206.738 115.439C205.639 115.439 204.585 115.883 203.808 116.672C203.031 117.461 202.594 118.532 202.594 119.648Z" fill="#F5F5F5"/>
<path d="M189.777 125.029C192.707 125.029 195.082 122.617 195.082 119.642C195.082 116.667 192.707 114.255 189.777 114.255C186.848 114.255 184.473 116.667 184.473 119.642C184.473 122.617 186.848 125.029 189.777 125.029Z" fill="#F5F5F5"/>
<path d="M181.081 123.448C184.011 123.448 186.385 121.036 186.385 118.061C186.385 115.085 184.011 112.673 181.081 112.673C178.152 112.673 175.777 115.085 175.777 118.061C175.777 121.036 178.152 123.448 181.081 123.448Z" fill="#F5F5F5"/>
<path d="M221.343 118.764C221.343 118.764 220.615 129.268 192.702 129.268C164.789 129.268 164.061 118.764 164.061 118.764H221.343Z" fill="#E6E6E6"/>
<path d="M148 224C211.393 224 262.783 220.953 262.783 217.194C262.783 213.435 211.393 210.388 148 210.388C84.6071 210.388 33.217 213.435 33.217 217.194C33.217 220.953 84.6071 224 148 224Z" fill="#F5F5F5"/>
<path d="M122.129 63.5155C122.206 63.7801 122.343 64.1829 122.461 64.5196L122.84 65.5958C123.1 66.3113 123.384 67.0208 123.686 67.7242C124.277 69.1165 124.941 70.4753 125.675 71.7947C127.132 74.38 128.902 76.7189 131.003 78.216L131.371 78.4745C131.371 78.4745 131.371 78.5166 131.459 78.5286C131.86 78.5182 132.252 78.4088 132.602 78.2099C133.815 77.5572 134.931 76.7334 135.917 75.7629C137.056 74.7038 138.141 73.586 139.167 72.4139C140.221 71.2114 141.257 69.9669 142.234 68.7463L145.058 70.4779C143.591 73.637 141.748 76.6012 139.57 79.3042C138.373 80.8069 136.955 82.113 135.367 83.1762C134.322 83.8592 133.141 84.2967 131.909 84.4569C131.125 84.5379 130.333 84.4644 129.577 84.2404C129.187 84.1243 128.81 83.9671 128.452 83.7715L127.771 83.3867C126.116 82.3733 124.618 81.1172 123.325 79.6589C122.089 78.2873 120.987 76.7973 120.034 75.2097C119.099 73.6684 118.274 72.0609 117.565 70.3998C117.216 69.5821 116.884 68.7524 116.582 67.9166C116.428 67.4958 116.28 67.0749 116.144 66.642C116.008 66.2091 115.884 65.8123 115.742 65.2772L122.129 63.5155Z" fill="#B97964"/>
<path d="M128.245 74.1396L120.673 78.3964C120.673 78.3964 120.448 78.0657 120.081 77.4945C119.815 77.0736 119.489 76.5205 119.075 75.8712C116.849 72.1975 113.155 65.4876 114.12 62.6438C115.594 58.2667 121.029 58.3388 123.698 63.4133C124.989 65.9417 126.146 68.5389 127.162 71.1935C127.44 71.9029 127.671 72.5222 127.848 72.9972C128.103 73.7247 128.245 74.1396 128.245 74.1396Z" fill="#FFA877"/>
<path opacity="0.2" d="M128.245 74.1396L120.673 78.3964C120.673 78.3964 120.448 78.0657 120.081 77.4945C119.815 77.0736 119.489 76.5205 119.075 75.8712C116.849 72.1975 113.155 65.4876 114.12 62.6438C115.594 58.2667 121.029 58.3388 123.698 63.4133C124.989 65.9417 126.146 68.5389 127.162 71.1935C127.44 71.9029 127.671 72.5222 127.848 72.9972C128.103 73.7247 128.245 74.1396 128.245 74.1396Z" fill="black"/>
<path opacity="0.2" d="M127.872 73.0272L120.105 77.4945C119.839 77.0736 119.513 76.5205 119.099 75.8711L127.185 71.2175C127.44 71.9269 127.671 72.5462 127.872 73.0272Z" fill="black"/>
<path opacity="0.2" d="M114.007 63.1728C115.701 62.3431 117.654 63.0345 119.702 66.3294C121.751 69.6242 123.509 75.1556 123.728 76.7008L120.703 78.3964C120.703 78.3964 113.386 67.5559 114.007 63.1728Z" fill="black"/>
<path d="M121.028 98.3698H97.5555C97.3897 96.2414 97.8752 89.315 97.514 80.4947C97.2909 73.9571 96.5105 67.4513 95.1816 61.0505C95.075 60.5695 94.9684 60.0945 94.856 59.6135C94.856 59.6135 96.04 59.367 97.7508 59.1144C99.1657 58.904 100.942 58.6876 102.682 58.6034C106.005 58.4109 109.335 58.4109 112.657 58.6034C114.191 58.7477 115.688 59.0062 116.884 59.2407C118.412 59.5534 119.454 59.842 119.454 59.842C119.454 59.842 125.095 73.3038 121.028 98.3698Z" fill="#FFA877"/>
<path opacity="0.2" d="M121.028 98.3698H97.5555C97.3897 96.2414 97.8752 89.315 97.514 80.4947C97.2909 73.9571 96.5105 67.4513 95.1816 61.0505C95.075 60.5695 94.9684 60.0945 94.856 59.6135C94.856 59.6135 96.04 59.367 97.7508 59.1144C99.1657 58.904 100.942 58.6876 102.682 58.6034C106.005 58.4109 109.335 58.4109 112.657 58.6034C114.191 58.7477 115.688 59.0062 116.884 59.2407C118.412 59.5534 119.454 59.842 119.454 59.842C119.454 59.842 125.095 73.3038 121.028 98.3698Z" fill="black"/>
<path d="M89.0193 204.941L92.5002 208.103L99.1188 201.099L95.6438 197.936L89.0193 204.941Z" fill="#B97964"/>
<path d="M100.936 211.524H105.323L105.897 201.201H101.504L100.936 211.524Z" fill="#B97964"/>
<path d="M99.1187 201.105L95.7029 204.712L92.2219 201.55L95.6378 197.936L99.1187 201.105Z" fill="#A76755"/>
<path d="M101.504 201.207H105.897L105.601 206.528H101.208L101.504 201.207Z" fill="#A76755"/>
<path d="M120.804 98.1413C120.804 98.1413 125.427 130.645 127.008 148.339C128.275 162.529 98.0531 204.856 98.0531 204.856L92.2041 199.271C92.2041 199.271 114.28 161.326 112.581 145.525C110.935 130.218 105.358 98.1232 105.358 98.1232L120.804 98.1413Z" fill="#FFA877"/>
<path opacity="0.7" d="M120.804 98.1413C120.804 98.1413 125.427 130.645 127.008 148.339C128.275 162.529 98.0531 204.856 98.0531 204.856L92.2041 199.271C92.2041 199.271 114.28 161.326 112.581 145.525C110.935 130.218 105.358 98.1232 105.358 98.1232L120.804 98.1413Z" fill="black"/>
<path d="M105.554 211.037H100.64C100.599 211.035 100.558 211.042 100.519 211.057C100.48 211.071 100.445 211.093 100.415 211.122C100.384 211.15 100.36 211.185 100.343 211.223C100.326 211.261 100.316 211.302 100.314 211.344L100.078 215.306C100.078 215.514 100.158 215.714 100.302 215.863C100.446 216.011 100.642 216.096 100.847 216.1C102.564 216.07 103.381 215.961 105.583 215.961C106.915 215.961 112.587 216.106 114.428 216.106C116.269 216.106 116.204 214.254 115.44 214.085C111.935 213.334 107.596 212.282 106.359 211.314C106.131 211.127 105.846 211.029 105.554 211.037Z" fill="#263238"/>
<path d="M93.459 206.828L89.2262 203.936C89.1577 203.882 89.0733 203.853 88.9865 203.853C88.8996 203.853 88.8153 203.882 88.7467 203.936L85.5144 207.249C85.4502 207.322 85.4028 207.409 85.3755 207.502C85.3481 207.596 85.3416 207.695 85.3563 207.791C85.371 207.888 85.4066 207.98 85.4606 208.061C85.5145 208.142 85.5855 208.21 85.6683 208.259C88.3678 210.37 90.3155 211.957 91.8488 213.713C93.6248 215.769 94.5898 216.058 98.7338 216.058C100.652 216.058 101.735 214.416 100.954 214.164C94.0451 211.945 95.8922 210.977 94.2168 207.724C94.0386 207.368 93.7787 207.061 93.459 206.828Z" fill="#263238"/>
<path d="M141.713 69.5039L143.222 64.5978L147.142 67.5138C147.142 67.5138 144.998 71.8849 143.548 71.488L141.713 69.5039Z" fill="#B97964"/>
<path d="M147.349 62.7219L149.557 65.4696L147.142 67.5138L143.223 64.5978L147.349 62.7219Z" fill="#B97964"/>
<path opacity="0.2" d="M97.5141 80.4947C97.291 73.957 96.5106 67.4513 95.1816 61.0504C96.7504 60.9121 99.4322 61.0504 99.8762 63.6418C100.356 66.4075 99.7519 72.913 97.5141 80.4947Z" fill="black"/>
<path opacity="0.5" d="M112.581 145.537C111.734 137.655 109.84 125.305 108.212 115.193C109.064 113.497 111.45 110.07 111.45 110.07C113.593 117.592 118.252 145.94 111.61 184.234C104.683 195.573 98.053 204.868 98.053 204.868L97.1472 190.246C103.547 178.017 113.759 156.474 112.581 145.537Z" fill="black"/>
<path d="M99.1128 66.0889L98.0768 67.8926C97.7216 68.5179 97.3782 69.1492 97.0467 69.7866C96.3718 71.0612 95.7226 72.3438 95.099 73.6345C94.507 74.9272 93.915 76.2259 93.3881 77.5246C92.8792 78.8056 92.4346 80.1119 92.0561 81.4387L91.9851 81.6792L91.9496 81.8054C91.9496 81.8054 91.9496 81.8415 91.9496 81.8054C91.9301 81.8385 91.918 81.8754 91.914 81.9137C91.8959 82.0996 91.8959 82.2869 91.914 82.4728C91.9751 83.0404 92.0922 83.6004 92.2633 84.1443C92.6735 85.4492 93.174 86.723 93.7611 87.9562C94.9451 90.5415 96.3836 93.169 97.8222 95.7062L95.2233 97.7685C93.0644 95.5386 91.1124 93.1113 89.3921 90.5175C88.4797 89.1455 87.6874 87.6949 87.0241 86.1825C86.6498 85.3197 86.3603 84.4215 86.1598 83.501C86.0443 82.9454 85.9848 82.3793 85.9822 81.8115C85.9778 81.4693 86.0016 81.1274 86.0532 80.7893L86.0947 80.5428V80.3865L86.1598 80.0799C86.7975 76.9048 87.7804 73.8115 89.0902 70.8568C89.7118 69.4018 90.3926 67.9828 91.1208 66.5939C91.4878 65.8965 91.8608 65.2111 92.2515 64.5257C92.6422 63.8402 93.027 63.1909 93.4888 62.4634L99.1128 66.0889Z" fill="#B97964"/>
<path d="M100.681 67.7303C99.5869 70.8094 98.3158 73.8207 96.8748 76.7489C96.561 77.4103 96.2828 77.9995 96.0341 78.4745C95.6197 79.3103 95.3592 79.8153 95.3592 79.8153L86.4792 74.8129C86.4792 74.8129 86.5917 74.4342 86.793 73.7968C86.9469 73.3158 87.1482 72.6845 87.385 71.957C88.865 67.6701 91.8901 60.0223 94.856 59.5834C99.2901 58.9581 102.481 62.3251 100.681 67.7303Z" fill="#FFA877"/>
<path opacity="0.2" d="M96.8749 76.779C96.5611 77.4404 96.2829 78.0296 96.0342 78.5046L86.7812 73.8269C86.9352 73.3459 87.1364 72.7146 87.3733 71.9871L96.8749 76.779Z" fill="black"/>
<path d="M107.111 211.783C106.712 211.773 106.315 211.721 105.927 211.626C105.907 211.621 105.889 211.61 105.874 211.595C105.86 211.581 105.849 211.562 105.844 211.542C105.842 211.522 105.845 211.502 105.853 211.484C105.862 211.466 105.875 211.451 105.891 211.44C106.027 211.338 107.276 210.478 107.809 210.688C107.87 210.713 107.924 210.753 107.965 210.805C108.007 210.856 108.034 210.918 108.046 210.983C108.073 211.081 108.075 211.184 108.052 211.283C108.03 211.381 107.983 211.473 107.916 211.548C107.684 211.723 107.398 211.807 107.111 211.783ZM106.223 211.476C107.01 211.632 107.584 211.608 107.791 211.404C107.834 211.353 107.863 211.292 107.875 211.227C107.888 211.162 107.883 211.094 107.862 211.031C107.858 210.999 107.845 210.969 107.826 210.943C107.806 210.918 107.78 210.898 107.75 210.887C107.46 210.773 106.732 211.145 106.223 211.476Z" fill="#FFA877"/>
<path d="M105.968 211.638C105.952 211.643 105.936 211.643 105.92 211.638C105.906 211.63 105.893 211.618 105.884 211.603C105.874 211.588 105.869 211.572 105.867 211.554C105.867 211.5 105.767 210.219 106.211 209.787C106.266 209.73 106.335 209.687 106.41 209.662C106.485 209.637 106.565 209.63 106.643 209.642C106.73 209.646 106.813 209.679 106.881 209.735C106.948 209.792 106.995 209.869 107.016 209.955C107.116 210.442 106.459 211.374 106.021 211.638H105.968ZM106.56 209.835C106.519 209.834 106.479 209.841 106.441 209.857C106.403 209.872 106.369 209.895 106.341 209.925C106.097 210.352 105.995 210.847 106.051 211.338C106.43 211.013 106.868 210.304 106.803 209.985C106.803 209.925 106.755 209.853 106.607 209.835H106.56Z" fill="#FFA877"/>
<path d="M96.3008 209.233C95.5179 209.111 94.7705 208.818 94.1104 208.374C94.0924 208.363 94.0782 208.347 94.0697 208.327C94.0612 208.308 94.0589 208.286 94.063 208.265C94.0676 208.244 94.0786 208.224 94.0945 208.209C94.1103 208.194 94.1303 208.184 94.1518 208.181C94.3886 208.181 96.4666 208.025 96.8691 208.506C96.9017 208.548 96.9241 208.597 96.9344 208.649C96.9446 208.701 96.9426 208.755 96.9283 208.807C96.9111 208.89 96.8739 208.967 96.8203 209.032C96.7666 209.097 96.698 209.148 96.6205 209.179C96.518 209.217 96.4097 209.235 96.3008 209.233ZM94.5248 208.368C95.472 208.897 96.2179 209.125 96.5494 208.969C96.5982 208.949 96.6415 208.917 96.6755 208.876C96.7096 208.835 96.7333 208.787 96.7448 208.734C96.7547 208.717 96.7599 208.697 96.7599 208.677C96.7599 208.657 96.7547 208.638 96.7448 208.62C96.4962 208.392 95.3595 208.35 94.513 208.386L94.5248 208.368Z" fill="#FFA877"/>
<path d="M94.1635 208.41C94.1459 208.41 94.1287 208.405 94.1132 208.397C94.0977 208.389 94.0845 208.376 94.0747 208.362C94.0673 208.346 94.0635 208.328 94.0635 208.31C94.0635 208.293 94.0673 208.275 94.0747 208.259C94.1102 208.187 94.9035 206.552 95.9158 207.057C96.1941 207.195 96.2237 207.364 96.2 207.478C96.0934 207.959 94.7733 208.404 94.1694 208.422L94.1635 208.41ZM95.531 207.165C94.9923 207.165 94.5305 207.863 94.347 208.187C94.9805 208.103 95.9395 207.706 95.9987 207.424C95.9987 207.358 95.9513 207.297 95.827 207.231C95.7347 207.186 95.6334 207.164 95.531 207.165Z" fill="#FFA877"/>
<path d="M96.6442 94.7623L101.013 93.9927L98.7695 99.1273C98.7695 99.1273 94.7794 99.1273 94.9629 97.0169L96.6442 94.7623Z" fill="#B97964"/>
<path d="M104.269 96.572L102.221 100.721L98.7693 99.1273L101.013 93.9927L104.269 96.572Z" fill="#B97964"/>
<path d="M91.8489 198.946L98.4082 205.211L100.516 202.908L93.021 195.97L91.8489 198.946Z" fill="#FFA877"/>
<path opacity="0.7" d="M91.8489 198.946L98.4082 205.211L100.516 202.908L93.021 195.97L91.8489 198.946Z" fill="white"/>
<path d="M112.48 98.1413C112.48 98.1413 112.9 132.208 112.19 144.966C111.408 158.945 107.507 205.241 107.507 205.241H99.4559C99.4559 205.241 99.6927 160.07 99.2132 146.235C98.6863 131.204 97.3247 98.1353 97.3247 98.1353L112.48 98.1413Z" fill="#FFA877"/>
<path opacity="0.7" d="M112.48 98.1413C112.48 98.1413 112.9 132.208 112.19 144.966C111.408 158.945 107.507 205.241 107.507 205.241H99.4559C99.4559 205.241 99.6927 160.07 99.2132 146.235C98.6863 131.204 97.3247 98.1353 97.3247 98.1353L112.48 98.1413Z" fill="black"/>
<path d="M99.1186 205.241H107.803L108.289 202.145L98.6982 202.626L99.1186 205.241Z" fill="#FFA877"/>
<path opacity="0.7" d="M99.1186 205.241H107.803L108.289 202.145L98.6982 202.626L99.1186 205.241Z" fill="white"/>
<path opacity="0.2" d="M100.681 67.7303C99.5869 70.8094 98.3158 73.8207 96.8748 76.7489C96.561 77.4103 96.2828 77.9995 96.0341 78.4745C95.6197 79.3103 95.3592 79.8153 95.3592 79.8153L86.4792 74.8129C86.4792 74.8129 86.5917 74.4342 86.793 73.7968C86.9469 73.3158 87.1482 72.6845 87.385 71.957C88.865 67.6701 91.8901 60.0223 94.856 59.5834C99.2901 58.9581 102.481 62.3251 100.681 67.7303Z" fill="black"/>
<path d="M116.405 62.0726C115.931 63.6659 114.629 65.7943 110.988 66.8825L110.041 67.1711L109.076 66.9968C101.646 65.644 98.9115 61.5856 98.4201 60.7979L97.4255 59.1144C98.8404 58.904 100.616 58.6876 102.357 58.6034C105.679 58.4109 109.01 58.4109 112.332 58.6034C113.865 58.7477 115.363 59.0062 116.559 59.2407C116.724 60.184 116.671 61.1534 116.405 62.0726Z" fill="#FFA877"/>
<path opacity="0.4" d="M116.405 62.0726C115.931 63.6659 114.629 65.7943 110.988 66.8825L110.041 67.1711L109.076 66.9968C101.646 65.644 98.9115 61.5856 98.4201 60.7979L97.4255 59.1144C98.8404 58.904 100.616 58.6876 102.357 58.6034C105.679 58.4109 109.01 58.4109 112.332 58.6034C113.865 58.7477 115.363 59.0062 116.559 59.2407C116.724 60.184 116.671 61.1534 116.405 62.0726Z" fill="black"/>
<path d="M110.112 62.8542C104.157 61.7659 102.292 58.6455 102.292 58.6455C104.464 56.4689 103.63 50.5226 102.884 47.2579L105.554 49.5065L109.189 52.5729C109.081 53.0645 109.004 53.5625 108.958 54.064C108.762 56.0661 109.271 57.8879 112.172 58.5853C112.184 58.5673 114.588 61.5014 110.112 62.8542Z" fill="#B97964"/>
<path d="M109.2 52.5548C109.092 53.0464 109.015 53.5444 108.969 54.0459C107.614 53.7693 105.802 52.3023 105.613 50.8954C105.546 50.4296 105.53 49.9578 105.565 49.4885L109.2 52.5548Z" fill="#A76755"/>
<path d="M111.669 35.8522C113.836 36.8443 115.037 43.0311 112.261 44.3658C109.484 45.7006 107.572 33.9703 111.669 35.8522Z" fill="#263238"/>
<path d="M101.824 42.5441C102.754 46.8791 103.079 49.4585 105.601 51.4366C106.414 52.0871 107.387 52.4998 108.414 52.63C109.441 52.7603 110.484 52.6031 111.43 52.1755C112.375 51.7479 113.188 51.0661 113.78 50.2037C114.372 49.3412 114.721 48.331 114.789 47.2819C115.12 43.2476 113.546 36.8383 109.052 35.6118C108.087 35.3196 107.063 35.2903 106.083 35.5271C105.103 35.7638 104.202 36.2582 103.47 36.9606C102.737 37.6629 102.2 38.5486 101.911 39.5286C101.622 40.5087 101.592 41.5486 101.824 42.5441Z" fill="#B97964"/>
<path d="M96.8453 38.2452C94.7673 39.1771 95.9454 42.0631 97.3603 43.8969C99.3198 46.4462 101.392 47.6366 102.801 46.4642C104.068 45.8209 104.902 42.027 103.801 39.6882C105.749 38.3835 109.792 39.9948 111.053 37.8844C112.314 35.7741 113.214 35.9484 115.434 37.3433C117.654 38.7382 119.43 33.2248 113.658 32.1967C116.855 33.6577 116.121 36.5016 113.782 33.5855C112.131 31.5293 108.17 29.2566 105.417 32.3229C103.387 34.5596 96.2533 31.1024 96.8453 38.2452Z" fill="#263238"/>
<path d="M100.811 47.0655C101.504 47.9114 102.461 48.4907 103.523 48.7069C104.867 48.9353 105.169 47.6727 104.488 46.4462C103.896 45.3459 102.428 43.8969 101.226 44.2216C100.024 44.5463 99.9413 46.0013 100.811 47.0655Z" fill="#B97964"/>
<path d="M108.531 42.977C108.585 43.3317 108.816 43.5782 109.046 43.5782C109.277 43.5782 109.419 43.2415 109.36 42.8868C109.301 42.532 109.082 42.2855 108.851 42.2855C108.62 42.2855 108.478 42.6162 108.531 42.977Z" fill="#263238"/>
<path d="M112.48 42.496C112.534 42.8508 112.764 43.0973 112.995 43.0973C113.226 43.0973 113.368 42.7546 113.315 42.3998C113.262 42.0451 113.031 41.7986 112.8 41.7986C112.569 41.7986 112.48 42.1413 112.48 42.496Z" fill="#263238"/>
<path d="M111.296 42.8267C111.883 43.8649 112.604 44.8193 113.439 45.6645C113.221 45.8674 112.961 46.0189 112.679 46.1082C112.397 46.1976 112.098 46.2226 111.805 46.1816L111.296 42.8267Z" fill="#A24E3F"/>
<path d="M110.485 47.312C110.075 47.317 109.668 47.2382 109.289 47.0801C108.909 46.9221 108.565 46.6881 108.277 46.3921C108.258 46.3719 108.247 46.345 108.247 46.3169C108.247 46.2889 108.258 46.262 108.277 46.2418C108.297 46.2223 108.323 46.2114 108.351 46.2114C108.378 46.2114 108.405 46.2223 108.425 46.2418C108.744 46.5565 109.129 46.7939 109.552 46.9365C109.974 47.0792 110.422 47.1232 110.864 47.0655C110.877 47.0638 110.891 47.065 110.905 47.069C110.918 47.073 110.93 47.0798 110.941 47.0888C110.951 47.0978 110.96 47.1089 110.966 47.1215C110.972 47.134 110.976 47.1477 110.976 47.1617C110.979 47.1752 110.978 47.1892 110.975 47.2026C110.972 47.216 110.966 47.2286 110.958 47.2394C110.949 47.2503 110.939 47.2591 110.926 47.2654C110.914 47.2717 110.901 47.2753 110.887 47.2759C110.754 47.2963 110.62 47.3083 110.485 47.312Z" fill="#263238"/>
<path d="M107.104 41.8226C107.071 41.8315 107.037 41.8315 107.004 41.8226C106.956 41.7948 106.92 41.7491 106.905 41.6953C106.89 41.6415 106.895 41.5837 106.921 41.534C107.077 41.2417 107.3 40.9918 107.571 40.8055C107.842 40.6192 108.153 40.502 108.478 40.4638C108.528 40.4723 108.573 40.4984 108.605 40.5375C108.638 40.5766 108.656 40.6261 108.656 40.6772C108.656 40.7284 108.638 40.7779 108.605 40.817C108.573 40.8561 108.528 40.8822 108.478 40.8907C108.223 40.9203 107.979 41.0131 107.767 41.1609C107.555 41.3087 107.383 41.507 107.264 41.7384C107.245 41.7635 107.221 41.784 107.194 41.7985C107.166 41.8131 107.136 41.8213 107.104 41.8226Z" fill="#263238"/>
<path d="M114.001 40.8846C113.967 40.8837 113.934 40.8745 113.904 40.8578C113.874 40.841 113.849 40.8172 113.83 40.7884C113.687 40.5604 113.494 40.3691 113.266 40.2293C113.038 40.0896 112.781 40.0052 112.516 39.9828C112.461 39.9828 112.408 39.9606 112.369 39.9211C112.33 39.8817 112.308 39.8281 112.308 39.7723C112.308 39.7165 112.33 39.663 112.369 39.6235C112.408 39.5841 112.461 39.5619 112.516 39.5619C112.85 39.5813 113.174 39.6814 113.463 39.854C113.751 40.0265 113.995 40.2665 114.173 40.5539C114.189 40.5768 114.2 40.6026 114.206 40.6298C114.212 40.657 114.212 40.6852 114.207 40.7126C114.202 40.74 114.192 40.7661 114.177 40.7894C114.162 40.8128 114.143 40.8329 114.12 40.8486C114.085 40.8722 114.044 40.8847 114.001 40.8846Z" fill="#263238"/>
<g opacity="0.9">
<path opacity="0.9" d="M175.788 110.467C176.292 109.186 177.152 108.082 178.263 107.29C179.374 106.497 180.689 106.051 182.046 106.006H234.237C237.362 106.006 239.476 108.579 238.973 111.76L222.462 211.873C222.171 213.456 221.357 214.891 220.155 215.942C218.953 216.992 217.434 217.595 215.849 217.651H84.9815C84.269 217.679 83.5596 217.541 82.9078 217.247C82.2561 216.953 81.6794 216.511 81.2221 215.955C80.7647 215.4 80.4389 214.745 80.2696 214.041C80.1003 213.338 80.0921 212.604 80.2455 211.897L94.2819 126.67C94.5788 125.092 95.3949 123.663 96.5964 122.618C97.7978 121.572 99.3133 120.972 100.895 120.916H161.172C167.341 120.892 173.397 116.569 175.788 110.467Z" fill="#FFA877"/>
</g>
<path opacity="0.5" d="M175.788 110.467C176.292 109.186 177.152 108.082 178.263 107.29C179.374 106.497 180.689 106.051 182.046 106.006H234.237C237.362 106.006 239.476 108.579 238.973 111.76L222.462 211.873C222.171 213.456 221.357 214.891 220.155 215.942C218.953 216.992 217.434 217.595 215.849 217.651H84.9815C84.269 217.679 83.5596 217.541 82.9078 217.247C82.2561 216.953 81.6794 216.511 81.2221 215.955C80.7647 215.4 80.4389 214.745 80.2696 214.041C80.1003 213.338 80.0921 212.604 80.2455 211.897L94.2819 126.67C94.5788 125.092 95.3949 123.663 96.5964 122.618C97.7978 121.572 99.3133 120.972 100.895 120.916H161.172C167.341 120.892 173.397 116.569 175.788 110.467Z" fill="white"/>
<path opacity="0.9" d="M155.015 21.5787L115.523 160.947L205.862 187.348L245.349 47.9794L155.015 21.5787Z" fill="#FFA877"/>
<path opacity="0.7" d="M155.015 21.5787L115.523 160.947L205.862 187.348L245.349 47.9794L155.015 21.5787Z" fill="white"/>
<g style="mix-blend-mode:multiply" opacity="0.9">
<path d="M153.263 27.7535L115.523 160.947L202.79 186.452L238.162 48.5987L153.263 27.7535Z" fill="#FFA877"/>
</g>
<path opacity="0.6" d="M153.263 27.7535L115.523 160.947L202.79 186.452L238.162 48.5987L153.263 27.7535Z" fill="#FFA877"/>
<g opacity="0.9">
<g style="mix-blend-mode:multiply" opacity="0.9">
<path d="M153.263 27.7535L115.523 160.947L202.79 186.452L238.162 48.5987L153.263 27.7535Z" fill="white"/>
</g>
<path opacity="0.6" d="M153.263 27.7535L115.523 160.947L202.79 186.452L238.162 48.5987L153.263 27.7535Z" fill="white"/>
</g>
<path d="M185.251 65.4869C191.172 58.6105 190.483 48.1612 183.713 42.1477C176.942 36.1342 166.653 36.8338 160.732 43.7102C154.811 50.5866 155.5 61.0359 162.271 67.0494C169.041 73.0629 179.33 72.3633 185.251 65.4869Z" fill="#FFA877"/>
<path d="M169.419 67.1772C166.967 66.4577 164.78 65.0162 163.135 63.0348C161.49 61.0534 160.46 58.621 160.176 56.0453C159.892 53.4696 160.366 50.8661 161.538 48.5639C162.71 46.2617 164.528 44.3642 166.762 43.1113C168.996 41.8583 171.546 41.3062 174.089 41.5247C176.632 41.7432 179.054 42.7224 181.049 44.3387C183.044 45.955 184.522 48.1357 185.297 50.6052C186.072 53.0746 186.109 55.722 185.403 58.2127C184.934 59.868 184.149 61.4133 183.091 62.7601C182.034 64.1068 180.726 65.2286 179.241 66.0613C177.756 66.8939 176.125 67.4211 174.439 67.6126C172.754 67.804 171.048 67.6561 169.419 67.1772Z" fill="white"/>
<path d="M179.273 80.9794L150.519 72.5781L148.66 79.142L177.413 87.5433L179.273 80.9794Z" fill="#FFA877"/>
<path d="M150.726 132.443L134.876 127.812L127.648 153.328L143.498 157.959L150.726 132.443Z" fill="#FFA877"/>
<path d="M206.812 148.833L190.962 144.202L183.734 169.718L199.584 174.35L206.812 148.833Z" fill="#FFA877"/>
<path d="M178.766 140.641L162.916 136.01L155.688 161.526L171.538 166.157L178.766 140.641Z" fill="#FFA877"/>
<path d="M202.506 87.7628L183.055 82.0794L181.196 88.6433L200.647 94.3267L202.506 87.7628Z" fill="#FFA877"/>
<path d="M217.657 107.633L146.479 86.8361L145.713 89.5402L216.891 110.337L217.657 107.633Z" fill="white"/>
<path d="M180.245 102.923L144.852 92.5817L144.086 95.2859L179.479 105.627L180.245 102.923Z" fill="white"/>
<path d="M209.972 111.609L186.299 104.692L185.533 107.396L209.206 114.313L209.972 111.609Z" fill="white"/>
<path d="M200.122 114.948L143.224 98.323L142.458 101.027L199.356 117.652L200.122 114.948Z" fill="white"/>
<path d="M206.28 123.779L140.946 104.426L140.17 107.127L205.504 126.48L206.28 123.779Z" fill="white"/>
<path d="M147.521 112.026L139.966 109.818L139.2 112.522L146.755 114.73L147.521 112.026Z" fill="white"/>
<path d="M186.969 123.553L153.584 113.799L152.818 116.503L186.203 126.257L186.969 123.553Z" fill="white"/>
<path d="M209.519 136.364L138.341 115.567L137.575 118.271L208.753 139.068L209.519 136.364Z" fill="white"/>
<path d="M144.501 26.4548L109.781 167.146L200.949 190.36L235.663 49.6689L144.501 26.4548Z" fill="#FFA877"/>
<path opacity="0.8" d="M144.501 26.4548L109.781 167.146L200.949 190.36L235.663 49.6689L144.501 26.4548Z" fill="white"/>
<path d="M170.673 73.6678C178.772 69.6948 182.166 59.8059 178.255 51.5801C174.343 43.3544 164.606 39.9068 156.507 43.8797C148.407 47.8527 145.013 57.7416 148.925 65.9674C152.836 74.1931 162.573 77.6407 170.673 73.6678Z" fill="#FFA877"/>
<path d="M176.273 61.1459C177.556 54.0253 172.913 47.1966 165.902 45.8935C158.891 44.5905 152.167 49.3066 150.884 56.4273C149.601 63.5479 154.244 70.3766 161.256 71.6797C168.267 72.9827 174.99 68.2666 176.273 61.1459Z" fill="white"/>
<path d="M170.768 84.9524L141.746 77.5651L140.111 84.1904L169.133 91.5776L170.768 84.9524Z" fill="#FFA877"/>
<path d="M143.988 137.39L127.99 133.318L121.635 159.072L137.633 163.144L143.988 137.39Z" fill="#FFA877"/>
<path d="M200.592 151.8L184.594 147.728L178.238 173.482L194.236 177.554L200.592 151.8Z" fill="#FFA877"/>
<path d="M172.292 144.595L156.294 140.523L149.938 166.277L165.937 170.349L172.292 144.595Z" fill="#FFA877"/>
<path d="M194.212 90.9174L174.579 85.92L172.944 92.5452L192.577 97.5427L194.212 90.9174Z" fill="#FFA877"/>
<path d="M210.033 110.242L138.189 91.9547L137.516 94.6841L209.359 112.971L210.033 110.242Z" fill="white"/>
<path d="M172.485 106.845L136.762 97.7523L136.088 100.482L171.812 109.575L172.485 106.845Z" fill="white"/>
<path d="M202.488 114.481L178.594 108.399L177.921 111.128L201.815 117.21L202.488 114.481Z" fill="white"/>
<path d="M192.757 118.17L135.327 103.552L134.654 106.281L192.084 120.899L192.757 118.17Z" fill="white"/>
<path d="M199.916 126.16L133.901 109.356L133.228 112.086L199.242 128.889L199.916 126.16Z" fill="white"/>
<path d="M140.092 117.102L132.466 115.161L131.792 117.891L139.418 119.832L140.092 117.102Z" fill="white"/>
<path d="M179.909 127.23L146.212 118.653L145.539 121.382L179.235 129.959L179.909 127.23Z" fill="white"/>
<path d="M202.878 139.242L131.035 120.955L130.362 123.684L202.205 141.971L202.878 139.242Z" fill="white"/>
<path opacity="0.5" d="M140.931 131.366C141.044 129.111 142.986 127.518 145.626 127.518H197.823C200.948 127.518 203.962 129.737 204.554 132.478L220.224 212.661C220.816 215.402 218.756 217.627 215.63 217.627H84.7448C81.6131 217.627 78.5998 215.402 78.0078 212.661L65.12 145.327C64.528 142.585 66.5881 140.361 69.7198 140.361H129.974C136.16 140.361 140.683 136.633 140.931 131.366Z" fill="#FFA877"/>
</svg>
